<svg width="444" height="233" viewBox="0 0 444 233" fill="none" xmlns="http://www.w3.org/2000/svg">
<path fill-rule="evenodd" clip-rule="evenodd" d="M442.813 226.669C440.041 232.213 433.3 234.46 427.756 231.688L358.869 197.245C350.08 192.85 350.08 180.309 358.869 175.914L407.68 151.509L358.869 127.103C350.08 122.709 350.08 110.167 358.869 105.772M358.869 105.772L407.68 81.3668L358.869 56.9612C350.08 52.5669 350.08 40.0248 358.869 35.6306L427.756 1.18713C433.3 -1.58476 440.041 0.662292 442.813 6.20605C445.585 11.7498 443.338 18.491 437.794 21.2629L387.728 46.2959L436.539 70.7015C445.328 75.0958 445.328 87.6378 436.539 92.0321L387.728 116.438L436.539 140.843C445.328 145.238 445.328 157.78 436.539 162.174L387.728 186.579L437.794 211.612C443.338 214.384 445.585 221.126 442.813 226.669" fill="#F1F1F1"/>
<path fill-rule="evenodd" clip-rule="evenodd" d="M350.226 226.669C347.454 232.213 340.713 234.46 335.169 231.688L266.282 197.245C257.493 192.85 257.493 180.309 266.282 175.914L315.093 151.509L266.282 127.103C257.493 122.709 257.493 110.167 266.282 105.772M266.282 105.772L315.093 81.3668L266.282 56.9612C257.493 52.5669 257.493 40.0248 266.282 35.6306L335.169 1.18713C340.713 -1.58476 347.454 0.662292 350.226 6.20605C352.997 11.7498 350.75 18.491 345.207 21.2629L295.141 46.2959L343.952 70.7015C352.741 75.0958 352.741 87.6378 343.952 92.0321L295.141 116.438L343.952 140.843C352.741 145.238 352.741 157.78 343.952 162.174L295.141 186.579L345.207 211.612C350.75 214.384 352.997 221.126 350.226 226.669" fill="#F1F1F1"/>
<path fill-rule="evenodd" clip-rule="evenodd" d="M238.482 221.65C238.482 227.848 233.458 232.873 227.259 232.873L11.2227 232.873C5.0246 232.873 0 227.848 0 221.65C0 215.452 5.0246 210.428 11.2227 210.428L227.259 210.428C233.458 210.428 238.482 215.452 238.482 221.65ZM238.482 179.565C238.482 185.763 233.458 190.788 227.259 190.788L11.2227 190.788C5.0246 190.788 0 185.763 0 179.565C0 173.367 5.0246 168.343 11.2227 168.343L227.259 168.343C233.458 168.343 238.482 173.367 238.482 179.565ZM238.482 137.48C238.482 143.678 233.458 148.703 227.259 148.703L11.2227 148.703C5.0246 148.703 0 143.678 0 137.48C0 131.282 5.0246 126.258 11.2227 126.258L227.259 126.258C233.458 126.258 238.482 131.282 238.482 137.48Z" fill="#F1F1F1"/>
<path d="M11.9242 77.8597C18.5096 77.8597 23.8483 83.1983 23.8483 89.7838C23.8483 96.3693 18.5096 101.708 11.9242 101.708C5.33865 101.708 6.10352e-05 96.3693 6.10352e-05 89.7838C6.10352e-05 83.1983 5.33865 77.8597 11.9242 77.8597Z" fill="#F1F1F1"/>
<path d="M52.6064 77.8597C59.1919 77.8597 64.5305 83.1983 64.5305 89.7838C64.5305 96.3693 59.1919 101.708 52.6064 101.708C46.0209 101.708 40.6823 96.3693 40.6823 89.7838C40.6823 83.1983 46.0209 77.8597 52.6064 77.8597Z" fill="#F1F1F1"/>
<path d="M93.2886 77.8597C99.8741 77.8597 105.213 83.1983 105.213 89.7838C105.213 96.3693 99.8741 101.708 93.2886 101.708C86.7031 101.708 81.3645 96.3693 81.3645 89.7838C81.3645 83.1983 86.7031 77.8597 93.2886 77.8597Z" fill="#F1F1F1"/>
<path d="M133.971 77.8597C140.556 77.8597 145.895 83.1983 145.895 89.7838C145.895 96.3693 140.556 101.708 133.971 101.708C127.385 101.708 122.047 96.3693 122.047 89.7838C122.047 83.1983 127.385 77.8597 133.971 77.8597Z" fill="#F1F1F1"/>
<path d="M174.653 77.8597C181.239 77.8597 186.577 83.1983 186.577 89.7838C186.577 96.3693 181.239 101.708 174.653 101.708C168.068 101.708 162.729 96.3693 162.729 89.7838C162.729 83.1983 168.068 77.8597 174.653 77.8597Z" fill="#F1F1F1"/>
<path d="M215.335 77.8597C221.921 77.8597 227.259 83.1983 227.259 89.7838C227.259 96.3693 221.921 101.708 215.335 101.708C208.75 101.708 203.411 96.3693 203.411 89.7838C203.411 83.1983 208.75 77.8597 215.335 77.8597Z" fill="#F1F1F1"/>
<path d="M11.9242 41.386C18.5096 41.386 23.8483 46.7246 23.8483 53.3101C23.8483 59.8956 18.5096 65.2342 11.9242 65.2342C5.33865 65.2342 6.10352e-05 59.8956 6.10352e-05 53.3101C6.10352e-05 46.7246 5.33865 41.386 11.9242 41.386Z" fill="#F1F1F1"/>
<path d="M52.6064 41.386C59.1919 41.386 64.5305 46.7246 64.5305 53.3101C64.5305 59.8956 59.1919 65.2342 52.6064 65.2342C46.0209 65.2342 40.6823 59.8956 40.6823 53.3101C40.6823 46.7246 46.0209 41.386 52.6064 41.386Z" fill="#F1F1F1"/>
<path d="M93.2886 41.386C99.8741 41.386 105.213 46.7246 105.213 53.3101C105.213 59.8956 99.8741 65.2342 93.2886 65.2342C86.7031 65.2342 81.3645 59.8956 81.3645 53.3101C81.3645 46.7246 86.7031 41.386 93.2886 41.386Z" fill="#F1F1F1"/>
<path d="M133.971 41.386C140.556 41.386 145.895 46.7246 145.895 53.3101C145.895 59.8956 140.556 65.2342 133.971 65.2342C127.385 65.2342 122.047 59.8956 122.047 53.3101C122.047 46.7246 127.385 41.386 133.971 41.386Z" fill="#F1F1F1"/>
<path d="M174.653 41.386C181.239 41.386 186.577 46.7246 186.577 53.3101C186.577 59.8956 181.239 65.2342 174.653 65.2342C168.068 65.2342 162.729 59.8956 162.729 53.3101C162.729 46.7246 168.068 41.386 174.653 41.386Z" fill="#F1F1F1"/>
<path d="M215.335 41.386C221.921 41.386 227.259 46.7246 227.259 53.3101C227.259 59.8956 221.921 65.2342 215.335 65.2342C208.75 65.2342 203.411 59.8956 203.411 53.3101C203.411 46.7246 208.75 41.386 215.335 41.386Z" fill="#F1F1F1"/>
<path d="M11.9242 4.91225C18.5096 4.91225 23.8483 10.2508 23.8483 16.8363C23.8483 23.4218 18.5096 28.7605 11.9242 28.7605C5.33865 28.7605 6.10352e-05 23.4218 6.10352e-05 16.8363C6.10352e-05 10.2508 5.33865 4.91225 11.9242 4.91225Z" fill="#F1F1F1"/>
<path d="M52.6064 4.91225C59.1919 4.91225 64.5305 10.2508 64.5305 16.8363C64.5305 23.4218 59.1919 28.7605 52.6064 28.7605C46.0209 28.7605 40.6823 23.4218 40.6823 16.8363C40.6823 10.2508 46.0209 4.91225 52.6064 4.91225Z" fill="#F1F1F1"/>
<path d="M93.2886 4.91225C99.8741 4.91225 105.213 10.2508 105.213 16.8363C105.213 23.4218 99.8741 28.7605 93.2886 28.7605C86.7031 28.7605 81.3645 23.4218 81.3645 16.8363C81.3645 10.2508 86.7031 4.91225 93.2886 4.91225Z" fill="#F1F1F1"/>
<path d="M133.971 4.91225C140.556 4.91225 145.895 10.2508 145.895 16.8363C145.895 23.4218 140.556 28.7605 133.971 28.7605C127.385 28.7605 122.047 23.4218 122.047 16.8363C122.047 10.2508 127.385 4.91225 133.971 4.91225Z" fill="#F1F1F1"/>
<path d="M174.653 4.91225C181.239 4.91225 186.577 10.2508 186.577 16.8363C186.577 23.4218 181.239 28.7605 174.653 28.7605C168.068 28.7605 162.729 23.4218 162.729 16.8363C162.729 10.2508 168.068 4.91225 174.653 4.91225Z" fill="#F1F1F1"/>
<path d="M215.335 4.91225C221.921 4.91225 227.259 10.2508 227.259 16.8363C227.259 23.4218 221.921 28.7605 215.335 28.7605C208.75 28.7605 203.411 23.4218 203.411 16.8363C203.411 10.2508 208.75 4.91225 215.335 4.91225Z" fill="#F1F1F1"/>
<path fill-rule="evenodd" clip-rule="evenodd" d="M238.483 179.565C238.483 185.764 233.459 190.788 227.261 190.788L11.224 190.788C5.02586 190.788 0.00128174 185.764 0.00128174 179.565C0.00128174 173.367 5.02586 168.343 11.224 168.343L227.261 168.343C233.459 168.343 238.483 173.367 238.483 179.565Z" fill="#F1F1F1"/>
<path fill-rule="evenodd" clip-rule="evenodd" d="M238.483 179.565C238.483 185.764 233.459 190.788 227.261 190.788L11.224 190.788C5.02586 190.788 0.00128174 185.764 0.00128174 179.565C0.00128174 173.367 5.02586 168.343 11.224 168.343L227.261 168.343C233.459 168.343 238.483 173.367 238.483 179.565Z" fill="#F1F1F1"/>
<path d="M11.9253 77.8588C18.5108 77.8588 23.8494 83.1974 23.8494 89.7829C23.8494 96.3684 18.5108 101.707 11.9253 101.707C5.33979 101.707 0.00118256 96.3684 0.00118256 89.7829C0.00118256 83.1974 5.33979 77.8588 11.9253 77.8588Z" fill="#F1F1F1"/>
<path d="M11.9253 77.8588C18.5108 77.8588 23.8494 83.1974 23.8494 89.7829C23.8494 96.3684 18.5108 101.707 11.9253 101.707C5.33979 101.707 0.00118256 96.3684 0.00118256 89.7829C0.00118256 83.1974 5.33979 77.8588 11.9253 77.8588Z" fill="#F1F1F1"/>
<path d="M52.6075 77.8588C59.193 77.8588 64.5316 83.1974 64.5316 89.7829C64.5316 96.3684 59.193 101.707 52.6075 101.707C46.022 101.707 40.6834 96.3684 40.6834 89.7829C40.6834 83.1974 46.022 77.8588 52.6075 77.8588Z" fill="#F1F1F1"/>
<path d="M52.6075 77.8588C59.193 77.8588 64.5316 83.1974 64.5316 89.7829C64.5316 96.3684 59.193 101.707 52.6075 101.707C46.022 101.707 40.6834 96.3684 40.6834 89.7829C40.6834 83.1974 46.022 77.8588 52.6075 77.8588Z" fill="#F1F1F1"/>
<path d="M93.2898 77.8588C99.8753 77.8588 105.214 83.1974 105.214 89.7829C105.214 96.3684 99.8753 101.707 93.2898 101.707C86.7043 101.707 81.3657 96.3684 81.3657 89.7829C81.3657 83.1974 86.7043 77.8588 93.2898 77.8588Z" fill="#F1F1F1"/>
<path d="M93.2898 77.8588C99.8753 77.8588 105.214 83.1974 105.214 89.7829C105.214 96.3684 99.8753 101.707 93.2898 101.707C86.7043 101.707 81.3657 96.3684 81.3657 89.7829C81.3657 83.1974 86.7043 77.8588 93.2898 77.8588Z" fill="#F1F1F1"/>
<path d="M11.9253 41.3851C18.5108 41.3851 23.8494 46.7237 23.8494 53.3092C23.8494 59.8947 18.5108 65.2333 11.9253 65.2333C5.33979 65.2333 0.00118256 59.8947 0.00118256 53.3092C0.00118256 46.7237 5.33979 41.3851 11.9253 41.3851Z" fill="#F1F1F1"/>
<path d="M11.9253 41.3851C18.5108 41.3851 23.8494 46.7237 23.8494 53.3092C23.8494 59.8947 18.5108 65.2333 11.9253 65.2333C5.33979 65.2333 0.00118256 59.8947 0.00118256 53.3092C0.00118256 46.7237 5.33979 41.3851 11.9253 41.3851Z" fill="#F1F1F1"/>
<path d="M52.6075 41.3851C59.193 41.3851 64.5316 46.7237 64.5316 53.3092C64.5316 59.8947 59.193 65.2333 52.6075 65.2333C46.022 65.2333 40.6834 59.8947 40.6834 53.3092C40.6834 46.7237 46.022 41.3851 52.6075 41.3851Z" fill="#F1F1F1"/>
<path d="M52.6075 41.3851C59.193 41.3851 64.5316 46.7237 64.5316 53.3092C64.5316 59.8947 59.193 65.2333 52.6075 65.2333C46.022 65.2333 40.6834 59.8947 40.6834 53.3092C40.6834 46.7237 46.022 41.3851 52.6075 41.3851Z" fill="#F1F1F1"/>
<path d="M93.2898 41.3851C99.8753 41.3851 105.214 46.7237 105.214 53.3092C105.214 59.8947 99.8753 65.2333 93.2898 65.2333C86.7043 65.2333 81.3657 59.8947 81.3657 53.3092C81.3657 46.7237 86.7043 41.3851 93.2898 41.3851Z" fill="#F1F1F1"/>
<path d="M93.2898 41.3851C99.8753 41.3851 105.214 46.7237 105.214 53.3092C105.214 59.8947 99.8753 65.2333 93.2898 65.2333C86.7043 65.2333 81.3657 59.8947 81.3657 53.3092C81.3657 46.7237 86.7043 41.3851 93.2898 41.3851Z" fill="#F1F1F1"/>
<path d="M11.9253 4.91138C18.5108 4.91138 23.8494 10.25 23.8494 16.8355C23.8494 23.421 18.5108 28.7596 11.9253 28.7596C5.33979 28.7596 0.00118256 23.421 0.00118256 16.8355C0.00118256 10.25 5.33979 4.91138 11.9253 4.91138Z" fill="#F1F1F1"/>
<path d="M11.9253 4.91138C18.5108 4.91138 23.8494 10.25 23.8494 16.8355C23.8494 23.421 18.5108 28.7596 11.9253 28.7596C5.33979 28.7596 0.00118256 23.421 0.00118256 16.8355C0.00118256 10.25 5.33979 4.91138 11.9253 4.91138Z" fill="#F1F1F1"/>
<path d="M52.6075 4.91138C59.193 4.91138 64.5316 10.25 64.5316 16.8355C64.5316 23.421 59.193 28.7596 52.6075 28.7596C46.022 28.7596 40.6834 23.421 40.6834 16.8355C40.6834 10.25 46.022 4.91138 52.6075 4.91138Z" fill="#F1F1F1"/>
<path d="M52.6075 4.91138C59.193 4.91138 64.5316 10.25 64.5316 16.8355C64.5316 23.421 59.193 28.7596 52.6075 28.7596C46.022 28.7596 40.6834 23.421 40.6834 16.8355C40.6834 10.25 46.022 4.91138 52.6075 4.91138Z" fill="#F1F1F1"/>
<path d="M93.2898 4.91138C99.8753 4.91138 105.214 10.25 105.214 16.8355C105.214 23.421 99.8753 28.7596 93.2898 28.7596C86.7043 28.7596 81.3657 23.421 81.3657 16.8355C81.3657 10.25 86.7043 4.91138 93.2898 4.91138Z" fill="#F1F1F1"/>
<path d="M93.2898 4.91138C99.8753 4.91138 105.214 10.25 105.214 16.8355C105.214 23.421 99.8753 28.7596 93.2898 28.7596C86.7043 28.7596 81.3657 23.421 81.3657 16.8355C81.3657 10.25 86.7043 4.91138 93.2898 4.91138Z" fill="#F1F1F1"/>
<path fill-rule="evenodd" clip-rule="evenodd" d="M350.226 226.669C347.454 232.213 340.713 234.46 335.169 231.688L266.282 197.245C257.494 192.85 257.494 180.309 266.282 175.914L315.094 151.509L266.283 127.103C257.494 122.709 257.494 110.167 266.282 105.772M266.282 105.772L315.094 81.3668L266.283 56.9612C257.494 52.5669 257.494 40.0248 266.283 35.6306L335.169 1.18713C340.713 -1.58476 347.454 0.662292 350.226 6.20605C352.998 11.7498 350.751 18.491 345.207 21.2629L295.141 46.2959L343.953 70.7015C352.741 75.0958 352.741 87.6378 343.953 92.0321L295.141 116.438L343.953 140.843C352.741 145.238 352.741 157.78 343.953 162.174L295.141 186.579L345.207 211.612C350.751 214.384 352.998 221.126 350.226 226.669" fill="#F1F1F1"/>
<path fill-rule="evenodd" clip-rule="evenodd" d="M350.226 226.669C347.454 232.213 340.713 234.46 335.169 231.688L266.282 197.245C257.494 192.85 257.494 180.309 266.282 175.914L315.094 151.509L266.283 127.103C257.494 122.709 257.494 110.167 266.282 105.772M266.282 105.772L315.094 81.3668L266.283 56.9612C257.494 52.5669 257.494 40.0248 266.283 35.6306L335.169 1.18713C340.713 -1.58476 347.454 0.662292 350.226 6.20605C352.998 11.7498 350.751 18.491 345.207 21.2629L295.141 46.2959L343.953 70.7015C352.741 75.0958 352.741 87.6378 343.953 92.0321L295.141 116.438L343.953 140.843C352.741 145.238 352.741 157.78 343.953 162.174L295.141 186.579L345.207 211.612C350.751 214.384 352.998 221.126 350.226 226.669" fill="#F1F1F1"/>
</svg>
