<svg width="444" height="233" viewBox="0 0 444 233" fill="none" xmlns="http://www.w3.org/2000/svg">
<path fill-rule="evenodd" clip-rule="evenodd" d="M1.18727 6.20621C3.95915 0.662441 10.7003 -1.58461 16.2441 1.18727L85.1311 35.6308C93.9198 40.0251 93.9198 52.567 85.1311 56.9613L36.3198 81.3669L85.131 105.773C93.9196 110.167 93.9198 122.709 85.1311 127.103M85.1311 127.103L36.3198 151.509L85.131 175.914C93.9197 180.309 93.9198 192.851 85.131 197.245L16.2441 231.688C10.7003 234.46 3.95915 232.213 1.18727 226.669C-1.58461 221.126 0.662441 214.384 6.20621 211.613L56.2722 186.58L7.46104 162.174C-1.32774 157.78 -1.32774 145.238 7.46104 140.843L56.2722 116.438L7.46096 92.0322C-1.32771 87.6379 -1.32771 75.096 7.46094 70.7017L56.2722 46.296L6.20621 21.263C0.662441 18.4911 -1.58461 11.75 1.18727 6.20621" fill="#F1F1F1"/>
<path fill-rule="evenodd" clip-rule="evenodd" d="M93.7744 6.20621C96.5463 0.662441 103.287 -1.58461 108.831 1.18727L177.718 35.6308C186.507 40.0251 186.507 52.567 177.718 56.9613L128.907 81.3669L177.718 105.773C186.507 110.167 186.507 122.709 177.718 127.103M177.718 127.103L128.907 151.509L177.718 175.914C186.507 180.309 186.507 192.851 177.718 197.245L108.831 231.688C103.287 234.46 96.5463 232.213 93.7744 226.669C91.0025 221.126 93.2496 214.384 98.7934 211.613L148.859 186.58L100.048 162.174C91.2594 157.78 91.2594 145.238 100.048 140.843L148.859 116.438L100.048 92.0322C91.2594 87.6379 91.2595 75.096 100.048 70.7017L148.859 46.296L98.7934 21.263C93.2496 18.4911 91.0025 11.75 93.7744 6.20621" fill="#F1F1F1"/>
<path fill-rule="evenodd" clip-rule="evenodd" d="M205.518 11.2251C205.518 5.02703 210.542 0.00245899 216.741 0.00245899L432.777 0.00245899C438.975 0.00245899 444 5.02703 444 11.2251C444 17.4233 438.975 22.4478 432.777 22.4478L216.741 22.4478C210.542 22.4478 205.518 17.4233 205.518 11.2251ZM205.518 53.3102C205.518 47.1121 210.542 42.0875 216.741 42.0875L432.777 42.0875C438.975 42.0875 444 47.1121 444 53.3102C444 59.5083 438.975 64.5329 432.777 64.5329L216.741 64.5329C210.542 64.5329 205.518 59.5083 205.518 53.3102ZM205.518 95.3953C205.518 89.1972 210.542 84.1726 216.741 84.1726L432.777 84.1726C438.975 84.1726 444 89.1972 444 95.3953C444 101.593 438.975 106.618 432.777 106.618L216.741 106.618C210.542 106.618 205.518 101.593 205.518 95.3953Z" fill="#F1F1F1"/>
<path d="M432.076 155.016C425.49 155.016 420.152 149.677 420.152 143.092C420.152 136.506 425.49 131.168 432.076 131.168C438.661 131.168 444 136.506 444 143.092C444 149.677 438.661 155.016 432.076 155.016Z" fill="#F1F1F1"/>
<path d="M391.394 155.016C384.808 155.016 379.47 149.677 379.47 143.092C379.47 136.506 384.808 131.168 391.394 131.168C397.979 131.168 403.318 136.506 403.318 143.092C403.318 149.677 397.979 155.016 391.394 155.016Z" fill="#F1F1F1"/>
<path d="M350.711 155.016C344.126 155.016 338.787 149.677 338.787 143.092C338.787 136.506 344.126 131.168 350.711 131.168C357.297 131.168 362.635 136.506 362.635 143.092C362.635 149.677 357.297 155.016 350.711 155.016Z" fill="#F1F1F1"/>
<path d="M310.029 155.016C303.444 155.016 298.105 149.677 298.105 143.092C298.105 136.506 303.444 131.168 310.029 131.168C316.615 131.168 321.953 136.506 321.953 143.092C321.953 149.677 316.615 155.016 310.029 155.016Z" fill="#F1F1F1"/>
<path d="M269.347 155.016C262.761 155.016 257.423 149.677 257.423 143.092C257.423 136.506 262.761 131.168 269.347 131.168C275.932 131.168 281.271 136.506 281.271 143.092C281.271 149.677 275.932 155.016 269.347 155.016Z" fill="#F1F1F1"/>
<path d="M228.665 155.016C222.079 155.016 216.741 149.677 216.741 143.092C216.741 136.506 222.079 131.168 228.665 131.168C235.25 131.168 240.589 136.506 240.589 143.092C240.589 149.677 235.25 155.016 228.665 155.016Z" fill="#F1F1F1"/>
<path d="M432.076 191.49C425.49 191.49 420.152 186.151 420.152 179.565C420.152 172.98 425.49 167.641 432.076 167.641C438.661 167.641 444 172.98 444 179.565C444 186.151 438.661 191.49 432.076 191.49Z" fill="#F1F1F1"/>
<path d="M391.394 191.49C384.808 191.49 379.47 186.151 379.47 179.565C379.47 172.98 384.808 167.641 391.394 167.641C397.979 167.641 403.318 172.98 403.318 179.565C403.318 186.151 397.979 191.49 391.394 191.49Z" fill="#F1F1F1"/>
<path d="M350.711 191.49C344.126 191.49 338.787 186.151 338.787 179.565C338.787 172.98 344.126 167.641 350.711 167.641C357.297 167.641 362.635 172.98 362.635 179.565C362.635 186.151 357.297 191.49 350.711 191.49Z" fill="#F1F1F1"/>
<path d="M310.029 191.49C303.444 191.49 298.105 186.151 298.105 179.565C298.105 172.98 303.444 167.641 310.029 167.641C316.615 167.641 321.953 172.98 321.953 179.565C321.953 186.151 316.615 191.49 310.029 191.49Z" fill="#F1F1F1"/>
<path d="M269.347 191.49C262.761 191.49 257.423 186.151 257.423 179.565C257.423 172.98 262.761 167.641 269.347 167.641C275.932 167.641 281.271 172.98 281.271 179.565C281.271 186.151 275.932 191.49 269.347 191.49Z" fill="#F1F1F1"/>
<path d="M228.665 191.49C222.079 191.49 216.741 186.151 216.741 179.565C216.741 172.98 222.079 167.641 228.665 167.641C235.25 167.641 240.589 172.98 240.589 179.565C240.589 186.151 235.25 191.49 228.665 191.49Z" fill="#F1F1F1"/>
<path d="M432.076 227.963C425.49 227.963 420.152 222.625 420.152 216.039C420.152 209.454 425.49 204.115 432.076 204.115C438.661 204.115 444 209.454 444 216.039C444 222.625 438.661 227.963 432.076 227.963Z" fill="#F1F1F1"/>
<path d="M391.394 227.963C384.808 227.963 379.47 222.625 379.47 216.039C379.47 209.454 384.808 204.115 391.394 204.115C397.979 204.115 403.318 209.454 403.318 216.039C403.318 222.625 397.979 227.963 391.394 227.963Z" fill="#F1F1F1"/>
<path d="M350.711 227.963C344.126 227.963 338.787 222.625 338.787 216.039C338.787 209.454 344.126 204.115 350.711 204.115C357.297 204.115 362.635 209.454 362.635 216.039C362.635 222.625 357.297 227.963 350.711 227.963Z" fill="#F1F1F1"/>
<path d="M310.029 227.963C303.444 227.963 298.105 222.625 298.105 216.039C298.105 209.454 303.444 204.115 310.029 204.115C316.615 204.115 321.953 209.454 321.953 216.039C321.953 222.625 316.615 227.963 310.029 227.963Z" fill="#F1F1F1"/>
<path d="M269.347 227.963C262.761 227.963 257.423 222.625 257.423 216.039C257.423 209.454 262.761 204.115 269.347 204.115C275.932 204.115 281.271 209.454 281.271 216.039C281.271 222.625 275.932 227.963 269.347 227.963Z" fill="#F1F1F1"/>
<path d="M228.665 227.963C222.079 227.963 216.741 222.625 216.741 216.039C216.741 209.454 222.079 204.115 228.665 204.115C235.25 204.115 240.589 209.454 240.589 216.039C240.589 222.625 235.25 227.963 228.665 227.963Z" fill="#F1F1F1"/>
<path fill-rule="evenodd" clip-rule="evenodd" d="M205.517 53.3096C205.517 47.1115 210.541 42.0869 216.739 42.0869L432.776 42.0869C438.974 42.0869 443.999 47.1115 443.999 53.3096C443.999 59.5077 438.974 64.5323 432.776 64.5323L216.739 64.5323C210.541 64.5323 205.517 59.5077 205.517 53.3096Z" fill="#F1F1F1"/>
<path fill-rule="evenodd" clip-rule="evenodd" d="M205.517 53.3096C205.517 47.1115 210.541 42.0869 216.739 42.0869L432.776 42.0869C438.974 42.0869 443.999 47.1115 443.999 53.3096C443.999 59.5077 438.974 64.5323 432.776 64.5323L216.739 64.5323C210.541 64.5323 205.517 59.5077 205.517 53.3096Z" fill="#F1F1F1"/>
<path d="M432.075 155.016C425.489 155.016 420.151 149.678 420.151 143.092C420.151 136.507 425.489 131.168 432.075 131.168C438.66 131.168 443.999 136.507 443.999 143.092C443.999 149.678 438.66 155.016 432.075 155.016Z" fill="#F1F1F1"/>
<path d="M432.075 155.016C425.489 155.016 420.151 149.678 420.151 143.092C420.151 136.507 425.489 131.168 432.075 131.168C438.66 131.168 443.999 136.507 443.999 143.092C443.999 149.678 438.66 155.016 432.075 155.016Z" fill="#F1F1F1"/>
<path d="M391.392 155.016C384.807 155.016 379.468 149.678 379.468 143.092C379.468 136.507 384.807 131.168 391.392 131.168C397.978 131.168 403.317 136.507 403.317 143.092C403.317 149.678 397.978 155.016 391.392 155.016Z" fill="#F1F1F1"/>
<path d="M391.392 155.016C384.807 155.016 379.468 149.678 379.468 143.092C379.468 136.507 384.807 131.168 391.392 131.168C397.978 131.168 403.317 136.507 403.317 143.092C403.317 149.678 397.978 155.016 391.392 155.016Z" fill="#F1F1F1"/>
<path d="M350.71 155.016C344.125 155.016 338.786 149.678 338.786 143.092C338.786 136.507 344.125 131.168 350.71 131.168C357.296 131.168 362.634 136.507 362.634 143.092C362.634 149.678 357.296 155.016 350.71 155.016Z" fill="#F1F1F1"/>
<path d="M350.71 155.016C344.125 155.016 338.786 149.678 338.786 143.092C338.786 136.507 344.125 131.168 350.71 131.168C357.296 131.168 362.634 136.507 362.634 143.092C362.634 149.678 357.296 155.016 350.71 155.016Z" fill="#F1F1F1"/>
<path d="M432.075 191.49C425.489 191.49 420.151 186.151 420.151 179.566C420.151 172.98 425.489 167.642 432.075 167.642C438.66 167.642 443.999 172.98 443.999 179.566C443.999 186.151 438.66 191.49 432.075 191.49Z" fill="#F1F1F1"/>
<path d="M432.075 191.49C425.489 191.49 420.151 186.151 420.151 179.566C420.151 172.98 425.489 167.642 432.075 167.642C438.66 167.642 443.999 172.98 443.999 179.566C443.999 186.151 438.66 191.49 432.075 191.49Z" fill="#F1F1F1"/>
<path d="M391.392 191.49C384.807 191.49 379.468 186.151 379.468 179.566C379.468 172.98 384.807 167.642 391.392 167.642C397.978 167.642 403.317 172.98 403.317 179.566C403.317 186.151 397.978 191.49 391.392 191.49Z" fill="#F1F1F1"/>
<path d="M391.392 191.49C384.807 191.49 379.468 186.151 379.468 179.566C379.468 172.98 384.807 167.642 391.392 167.642C397.978 167.642 403.317 172.98 403.317 179.566C403.317 186.151 397.978 191.49 391.392 191.49Z" fill="#F1F1F1"/>
<path d="M350.71 191.49C344.125 191.49 338.786 186.151 338.786 179.566C338.786 172.98 344.125 167.642 350.71 167.642C357.296 167.642 362.634 172.98 362.634 179.566C362.634 186.151 357.296 191.49 350.71 191.49Z" fill="#F1F1F1"/>
<path d="M350.71 191.49C344.125 191.49 338.786 186.151 338.786 179.566C338.786 172.98 344.125 167.642 350.71 167.642C357.296 167.642 362.634 172.98 362.634 179.566C362.634 186.151 357.296 191.49 350.71 191.49Z" fill="#F1F1F1"/>
<path d="M432.075 227.964C425.489 227.964 420.151 222.625 420.151 216.04C420.151 209.454 425.489 204.115 432.075 204.115C438.66 204.115 443.999 209.454 443.999 216.04C443.999 222.625 438.66 227.964 432.075 227.964Z" fill="#F1F1F1"/>
<path d="M432.075 227.964C425.489 227.964 420.151 222.625 420.151 216.04C420.151 209.454 425.489 204.115 432.075 204.115C438.66 204.115 443.999 209.454 443.999 216.04C443.999 222.625 438.66 227.964 432.075 227.964Z" fill="#F1F1F1"/>
<path d="M391.392 227.964C384.807 227.964 379.468 222.625 379.468 216.04C379.468 209.454 384.807 204.115 391.392 204.115C397.978 204.115 403.317 209.454 403.317 216.04C403.317 222.625 397.978 227.964 391.392 227.964Z" fill="#F1F1F1"/>
<path d="M391.392 227.964C384.807 227.964 379.468 222.625 379.468 216.04C379.468 209.454 384.807 204.115 391.392 204.115C397.978 204.115 403.317 209.454 403.317 216.04C403.317 222.625 397.978 227.964 391.392 227.964Z" fill="#F1F1F1"/>
<path d="M350.71 227.964C344.125 227.964 338.786 222.625 338.786 216.04C338.786 209.454 344.125 204.115 350.71 204.115C357.296 204.115 362.634 209.454 362.634 216.04C362.634 222.625 357.296 227.964 350.71 227.964Z" fill="#F1F1F1"/>
<path d="M350.71 227.964C344.125 227.964 338.786 222.625 338.786 216.04C338.786 209.454 344.125 204.115 350.71 204.115C357.296 204.115 362.634 209.454 362.634 216.04C362.634 222.625 357.296 227.964 350.71 227.964Z" fill="#F1F1F1"/>
<path fill-rule="evenodd" clip-rule="evenodd" d="M93.7737 6.20621C96.5456 0.662441 103.287 -1.58461 108.831 1.18727L177.718 35.6308C186.506 40.0251 186.506 52.5669 177.718 56.9613L128.906 81.3669L177.717 105.773C186.506 110.167 186.506 122.709 177.718 127.103M177.718 127.103L128.906 151.509L177.717 175.914C186.506 180.309 186.506 192.851 177.717 197.245L108.831 231.688C103.287 234.46 96.5456 232.213 93.7737 226.669C91.0018 221.126 93.2489 214.384 98.7926 211.613L148.859 186.58L100.047 162.174C91.2587 157.78 91.2587 145.238 100.047 140.843L148.859 116.438L100.047 92.0322C91.2587 87.6379 91.2587 75.096 100.047 70.7017L148.859 46.296L98.7926 21.263C93.2489 18.4911 91.0018 11.75 93.7737 6.20621" fill="#F1F1F1"/>
<path fill-rule="evenodd" clip-rule="evenodd" d="M93.7737 6.20621C96.5456 0.662441 103.287 -1.58461 108.831 1.18727L177.718 35.6308C186.506 40.0251 186.506 52.5669 177.718 56.9613L128.906 81.3669L177.717 105.773C186.506 110.167 186.506 122.709 177.718 127.103M177.718 127.103L128.906 151.509L177.717 175.914C186.506 180.309 186.506 192.851 177.717 197.245L108.831 231.688C103.287 234.46 96.5456 232.213 93.7737 226.669C91.0018 221.126 93.2489 214.384 98.7926 211.613L148.859 186.58L100.047 162.174C91.2587 157.78 91.2587 145.238 100.047 140.843L148.859 116.438L100.047 92.0322C91.2587 87.6379 91.2587 75.096 100.047 70.7017L148.859 46.296L98.7926 21.263C93.2489 18.4911 91.0018 11.75 93.7737 6.20621" fill="#F1F1F1"/>
</svg>
