<svg width="73" height="38" viewBox="0 0 73 38" fill="none" xmlns="http://www.w3.org/2000/svg">
<path fill-rule="evenodd" clip-rule="evenodd" d="M0.192539 1.00646C0.642055 0.107428 1.73527 -0.256977 2.6343 0.192539L13.8057 5.77824C15.231 6.49087 15.231 8.52478 13.8057 9.2374L5.88998 13.1953L13.8057 17.1531C15.2309 17.8657 15.231 19.8997 13.8057 20.6123M13.8057 20.6123L5.88998 24.5702L13.8057 28.528C15.2309 29.2406 15.231 31.2746 13.8057 31.9872L2.6343 37.5729C1.73527 38.0224 0.642055 37.658 0.192539 36.759C-0.256977 35.8599 0.107428 34.7667 1.00646 34.3172L9.12566 30.2576L1.20996 26.2997C-0.215319 25.5871 -0.215319 23.5532 1.20996 22.8406L9.12566 18.8827L1.20994 14.9248C-0.215314 14.2122 -0.215314 12.1783 1.20994 11.4657L9.12566 7.50782L1.00646 3.44822C0.107428 2.99871 -0.256977 1.90549 0.192539 1.00646" fill="#393840"/>
<path fill-rule="evenodd" clip-rule="evenodd" d="M15.2074 1.00646C15.6569 0.107428 16.7501 -0.256977 17.6491 0.192539L28.8206 5.77824C30.2458 6.49087 30.2458 8.52478 28.8206 9.2374L20.9048 13.1953L28.8205 17.1531C30.2458 17.8657 30.2458 19.8997 28.8206 20.6123M28.8206 20.6123L20.9048 24.5702L28.8205 28.528C30.2458 29.2406 30.2458 31.2746 28.8205 31.9872L17.6491 37.5729C16.7501 38.0224 15.6569 37.658 15.2074 36.759C14.7579 35.8599 15.1223 34.7667 16.0213 34.3172L24.1405 30.2576L16.2248 26.2997C14.7995 25.5871 14.7995 23.5532 16.2248 22.8406L24.1405 18.8827L16.2248 14.9248C14.7995 14.2122 14.7995 12.1783 16.2248 11.4657L24.1405 7.50782L16.0213 3.44822C15.1223 2.99871 14.7579 1.90549 15.2074 1.00646" fill="#393840"/>
<path fill-rule="evenodd" clip-rule="evenodd" d="M33.3288 1.82038C33.3288 0.815232 34.1436 0.000398774 35.1488 0.000398774H70.1834C71.1886 0.000398774 72.0034 0.815232 72.0034 1.82038C72.0034 2.82553 71.1886 3.64036 70.1834 3.64036H35.1488C34.1436 3.64036 33.3288 2.82553 33.3288 1.82038ZM33.3288 8.64531C33.3288 7.64016 34.1436 6.82533 35.1488 6.82533H70.1834C71.1886 6.82533 72.0034 7.64016 72.0034 8.64531C72.0034 9.65046 71.1886 10.4653 70.1834 10.4653H35.1488C34.1436 10.4653 33.3288 9.65046 33.3288 8.64531ZM33.3288 15.4702C33.3288 14.4651 34.1436 13.6503 35.1488 13.6503H70.1834C71.1886 13.6503 72.0034 14.4651 72.0034 15.4702C72.0034 16.4754 71.1886 17.2902 70.1834 17.2902H35.1488C34.1436 17.2902 33.3288 16.4754 33.3288 15.4702Z" fill="#393840"/>
<path d="M70.0697 25.1389C69.0017 25.1389 68.136 24.2731 68.136 23.2052C68.136 22.1372 69.0017 21.2714 70.0697 21.2714C71.1377 21.2714 72.0034 22.1372 72.0034 23.2052C72.0034 24.2731 71.1377 25.1389 70.0697 25.1389Z" fill="#393840"/>
<path d="M63.4723 25.1389C62.4043 25.1389 61.5385 24.2731 61.5385 23.2052C61.5385 22.1372 62.4043 21.2714 63.4723 21.2714C64.5402 21.2714 65.406 22.1372 65.406 23.2052C65.406 24.2731 64.5402 25.1389 63.4723 25.1389Z" fill="#393840"/>
<path d="M56.8748 25.1389C55.8069 25.1389 54.9411 24.2731 54.9411 23.2052C54.9411 22.1372 55.8069 21.2714 56.8748 21.2714C57.9428 21.2714 58.8086 22.1372 58.8086 23.2052C58.8086 24.2731 57.9428 25.1389 56.8748 25.1389Z" fill="#393840"/>
<path d="M50.2774 25.1389C49.2094 25.1389 48.3437 24.2731 48.3437 23.2052C48.3437 22.1372 49.2094 21.2714 50.2774 21.2714C51.3454 21.2714 52.2111 22.1372 52.2111 23.2052C52.2111 24.2731 51.3454 25.1389 50.2774 25.1389Z" fill="#393840"/>
<path d="M43.68 25.1389C42.612 25.1389 41.7462 24.2731 41.7462 23.2052C41.7462 22.1372 42.612 21.2714 43.68 21.2714C44.7479 21.2714 45.6137 22.1372 45.6137 23.2052C45.6137 24.2731 44.7479 25.1389 43.68 25.1389Z" fill="#393840"/>
<path d="M37.0825 25.1389C36.0146 25.1389 35.1488 24.2731 35.1488 23.2052C35.1488 22.1372 36.0146 21.2714 37.0825 21.2714C38.1505 21.2714 39.0163 22.1372 39.0163 23.2052C39.0163 24.2731 38.1505 25.1389 37.0825 25.1389Z" fill="#393840"/>
<path d="M70.0697 31.0538C69.0017 31.0538 68.136 30.1881 68.136 29.1201C68.136 28.0521 69.0017 27.1864 70.0697 27.1864C71.1377 27.1864 72.0034 28.0521 72.0034 29.1201C72.0034 30.1881 71.1377 31.0538 70.0697 31.0538Z" fill="#393840"/>
<path d="M63.4723 31.0538C62.4043 31.0538 61.5385 30.1881 61.5385 29.1201C61.5385 28.0521 62.4043 27.1864 63.4723 27.1864C64.5402 27.1864 65.406 28.0521 65.406 29.1201C65.406 30.1881 64.5402 31.0538 63.4723 31.0538Z" fill="#393840"/>
<path d="M56.8748 31.0538C55.8069 31.0538 54.9411 30.1881 54.9411 29.1201C54.9411 28.0521 55.8069 27.1864 56.8748 27.1864C57.9428 27.1864 58.8086 28.0521 58.8086 29.1201C58.8086 30.1881 57.9428 31.0538 56.8748 31.0538Z" fill="#393840"/>
<path d="M50.2774 31.0538C49.2094 31.0538 48.3437 30.1881 48.3437 29.1201C48.3437 28.0521 49.2094 27.1864 50.2774 27.1864C51.3454 27.1864 52.2111 28.0521 52.2111 29.1201C52.2111 30.1881 51.3454 31.0538 50.2774 31.0538Z" fill="#393840"/>
<path d="M43.68 31.0538C42.612 31.0538 41.7462 30.1881 41.7462 29.1201C41.7462 28.0521 42.612 27.1864 43.68 27.1864C44.7479 27.1864 45.6137 28.0521 45.6137 29.1201C45.6137 30.1881 44.7479 31.0538 43.68 31.0538Z" fill="#393840"/>
<path d="M37.0825 31.0538C36.0146 31.0538 35.1488 30.1881 35.1488 29.1201C35.1488 28.0521 36.0146 27.1864 37.0825 27.1864C38.1505 27.1864 39.0163 28.0521 39.0163 29.1201C39.0163 30.1881 38.1505 31.0538 37.0825 31.0538Z" fill="#393840"/>
<path d="M70.0697 36.9688C69.0017 36.9688 68.136 36.103 68.136 35.035C68.136 33.9671 69.0017 33.1013 70.0697 33.1013C71.1377 33.1013 72.0034 33.9671 72.0034 35.035C72.0034 36.103 71.1377 36.9688 70.0697 36.9688Z" fill="#393840"/>
<path d="M63.4723 36.9688C62.4043 36.9688 61.5385 36.103 61.5385 35.035C61.5385 33.9671 62.4043 33.1013 63.4723 33.1013C64.5402 33.1013 65.406 33.9671 65.406 35.035C65.406 36.103 64.5402 36.9688 63.4723 36.9688Z" fill="#393840"/>
<path d="M56.8748 36.9688C55.8069 36.9688 54.9411 36.103 54.9411 35.035C54.9411 33.9671 55.8069 33.1013 56.8748 33.1013C57.9428 33.1013 58.8086 33.9671 58.8086 35.035C58.8086 36.103 57.9428 36.9688 56.8748 36.9688Z" fill="#393840"/>
<path d="M50.2774 36.9688C49.2094 36.9688 48.3437 36.103 48.3437 35.035C48.3437 33.9671 49.2094 33.1013 50.2774 33.1013C51.3454 33.1013 52.2111 33.9671 52.2111 35.035C52.2111 36.103 51.3454 36.9688 50.2774 36.9688Z" fill="#393840"/>
<path d="M43.68 36.9688C42.612 36.9688 41.7462 36.103 41.7462 35.035C41.7462 33.9671 42.612 33.1013 43.68 33.1013C44.7479 33.1013 45.6137 33.9671 45.6137 35.035C45.6137 36.103 44.7479 36.9688 43.68 36.9688Z" fill="#393840"/>
<path d="M37.0825 36.9688C36.0146 36.9688 35.1488 36.103 35.1488 35.035C35.1488 33.9671 36.0146 33.1013 37.0825 33.1013C38.1505 33.1013 39.0163 33.9671 39.0163 35.035C39.0163 36.103 38.1505 36.9688 37.0825 36.9688Z" fill="#393840"/>
<path fill-rule="evenodd" clip-rule="evenodd" d="M33.3289 8.64518C33.3289 7.64003 34.1437 6.8252 35.1488 6.8252H70.1835C71.1886 6.8252 72.0035 7.64003 72.0035 8.64518C72.0035 9.65032 71.1886 10.4652 70.1835 10.4652H35.1488C34.1437 10.4652 33.3289 9.65032 33.3289 8.64518Z" fill="#393840"/>
<path fill-rule="evenodd" clip-rule="evenodd" d="M33.3289 8.64518C33.3289 7.64003 34.1437 6.8252 35.1488 6.8252H70.1835C71.1886 6.8252 72.0035 7.64003 72.0035 8.64518C72.0035 9.65032 71.1886 10.4652 70.1835 10.4652H35.1488C34.1437 10.4652 33.3289 9.65032 33.3289 8.64518Z" fill="url(#paint0_linear)"/>
<path d="M70.0698 25.1389C69.0018 25.1389 68.136 24.2732 68.136 23.2052C68.136 22.1372 69.0018 21.2715 70.0698 21.2715C71.1377 21.2715 72.0035 22.1372 72.0035 23.2052C72.0035 24.2732 71.1377 25.1389 70.0698 25.1389Z" fill="#393840"/>
<path d="M70.0698 25.1389C69.0018 25.1389 68.136 24.2732 68.136 23.2052C68.136 22.1372 69.0018 21.2715 70.0698 21.2715C71.1377 21.2715 72.0035 22.1372 72.0035 23.2052C72.0035 24.2732 71.1377 25.1389 70.0698 25.1389Z" fill="url(#paint1_linear)"/>
<path d="M63.4723 25.1389C62.4044 25.1389 61.5386 24.2732 61.5386 23.2052C61.5386 22.1372 62.4044 21.2715 63.4723 21.2715C64.5403 21.2715 65.4061 22.1372 65.4061 23.2052C65.4061 24.2732 64.5403 25.1389 63.4723 25.1389Z" fill="#393840"/>
<path d="M63.4723 25.1389C62.4044 25.1389 61.5386 24.2732 61.5386 23.2052C61.5386 22.1372 62.4044 21.2715 63.4723 21.2715C64.5403 21.2715 65.4061 22.1372 65.4061 23.2052C65.4061 24.2732 64.5403 25.1389 63.4723 25.1389Z" fill="url(#paint2_linear)"/>
<path d="M56.8749 25.1389C55.8069 25.1389 54.9412 24.2732 54.9412 23.2052C54.9412 22.1372 55.8069 21.2715 56.8749 21.2715C57.9429 21.2715 58.8086 22.1372 58.8086 23.2052C58.8086 24.2732 57.9429 25.1389 56.8749 25.1389Z" fill="#393840"/>
<path d="M56.8749 25.1389C55.8069 25.1389 54.9412 24.2732 54.9412 23.2052C54.9412 22.1372 55.8069 21.2715 56.8749 21.2715C57.9429 21.2715 58.8086 22.1372 58.8086 23.2052C58.8086 24.2732 57.9429 25.1389 56.8749 25.1389Z" fill="url(#paint3_linear)"/>
<path d="M70.0698 31.0539C69.0018 31.0539 68.136 30.1881 68.136 29.1202C68.136 28.0522 69.0018 27.1864 70.0698 27.1864C71.1377 27.1864 72.0035 28.0522 72.0035 29.1202C72.0035 30.1881 71.1377 31.0539 70.0698 31.0539Z" fill="#393840"/>
<path d="M70.0698 31.0539C69.0018 31.0539 68.136 30.1881 68.136 29.1202C68.136 28.0522 69.0018 27.1864 70.0698 27.1864C71.1377 27.1864 72.0035 28.0522 72.0035 29.1202C72.0035 30.1881 71.1377 31.0539 70.0698 31.0539Z" fill="url(#paint4_linear)"/>
<path d="M63.4723 31.0539C62.4044 31.0539 61.5386 30.1881 61.5386 29.1202C61.5386 28.0522 62.4044 27.1864 63.4723 27.1864C64.5403 27.1864 65.4061 28.0522 65.4061 29.1202C65.4061 30.1881 64.5403 31.0539 63.4723 31.0539Z" fill="#393840"/>
<path d="M63.4723 31.0539C62.4044 31.0539 61.5386 30.1881 61.5386 29.1202C61.5386 28.0522 62.4044 27.1864 63.4723 27.1864C64.5403 27.1864 65.4061 28.0522 65.4061 29.1202C65.4061 30.1881 64.5403 31.0539 63.4723 31.0539Z" fill="url(#paint5_linear)"/>
<path d="M56.8749 31.0539C55.8069 31.0539 54.9412 30.1881 54.9412 29.1202C54.9412 28.0522 55.8069 27.1864 56.8749 27.1864C57.9429 27.1864 58.8086 28.0522 58.8086 29.1202C58.8086 30.1881 57.9429 31.0539 56.8749 31.0539Z" fill="#393840"/>
<path d="M56.8749 31.0539C55.8069 31.0539 54.9412 30.1881 54.9412 29.1202C54.9412 28.0522 55.8069 27.1864 56.8749 27.1864C57.9429 27.1864 58.8086 28.0522 58.8086 29.1202C58.8086 30.1881 57.9429 31.0539 56.8749 31.0539Z" fill="url(#paint6_linear)"/>
<path d="M70.0698 36.9688C69.0018 36.9688 68.136 36.1031 68.136 35.0351C68.136 33.9671 69.0018 33.1014 70.0698 33.1014C71.1377 33.1014 72.0035 33.9671 72.0035 35.0351C72.0035 36.1031 71.1377 36.9688 70.0698 36.9688Z" fill="#393840"/>
<path d="M70.0698 36.9688C69.0018 36.9688 68.136 36.1031 68.136 35.0351C68.136 33.9671 69.0018 33.1014 70.0698 33.1014C71.1377 33.1014 72.0035 33.9671 72.0035 35.0351C72.0035 36.1031 71.1377 36.9688 70.0698 36.9688Z" fill="url(#paint7_linear)"/>
<path d="M63.4723 36.9688C62.4044 36.9688 61.5386 36.1031 61.5386 35.0351C61.5386 33.9671 62.4044 33.1014 63.4723 33.1014C64.5403 33.1014 65.4061 33.9671 65.4061 35.0351C65.4061 36.1031 64.5403 36.9688 63.4723 36.9688Z" fill="#393840"/>
<path d="M63.4723 36.9688C62.4044 36.9688 61.5386 36.1031 61.5386 35.0351C61.5386 33.9671 62.4044 33.1014 63.4723 33.1014C64.5403 33.1014 65.4061 33.9671 65.4061 35.0351C65.4061 36.1031 64.5403 36.9688 63.4723 36.9688Z" fill="url(#paint8_linear)"/>
<path d="M56.8749 36.9688C55.8069 36.9688 54.9412 36.1031 54.9412 35.0351C54.9412 33.9671 55.8069 33.1014 56.8749 33.1014C57.9429 33.1014 58.8086 33.9671 58.8086 35.0351C58.8086 36.1031 57.9429 36.9688 56.8749 36.9688Z" fill="#393840"/>
<path d="M56.8749 36.9688C55.8069 36.9688 54.9412 36.1031 54.9412 35.0351C54.9412 33.9671 55.8069 33.1014 56.8749 33.1014C57.9429 33.1014 58.8086 33.9671 58.8086 35.0351C58.8086 36.1031 57.9429 36.9688 56.8749 36.9688Z" fill="url(#paint9_linear)"/>
<path fill-rule="evenodd" clip-rule="evenodd" d="M15.2074 1.00646C15.6569 0.107428 16.7502 -0.256977 17.6492 0.192539L28.8206 5.77824C30.2459 6.49087 30.2459 8.52478 28.8206 9.2374L20.9049 13.1953L28.8206 17.1531C30.2458 17.8657 30.2459 19.8997 28.8206 20.6123M28.8206 20.6123L20.9049 24.5702L28.8206 28.528C30.2458 29.2406 30.2459 31.2746 28.8206 31.9872L17.6492 37.5729C16.7502 38.0224 15.6569 37.658 15.2074 36.759C14.7579 35.8599 15.1223 34.7667 16.0214 34.3172L24.1406 30.2576L16.2248 26.2997C14.7996 25.5871 14.7996 23.5532 16.2248 22.8406L24.1406 18.8827L16.2248 14.9248C14.7996 14.2122 14.7996 12.1783 16.2248 11.4657L24.1406 7.50782L16.0214 3.44822C15.1223 2.99871 14.7579 1.90549 15.2074 1.00646" fill="#393840"/>
<path fill-rule="evenodd" clip-rule="evenodd" d="M15.2074 1.00646C15.6569 0.107428 16.7502 -0.256977 17.6492 0.192539L28.8206 5.77824C30.2459 6.49087 30.2459 8.52478 28.8206 9.2374L20.9049 13.1953L28.8206 17.1531C30.2458 17.8657 30.2459 19.8997 28.8206 20.6123M28.8206 20.6123L20.9049 24.5702L28.8206 28.528C30.2458 29.2406 30.2459 31.2746 28.8206 31.9872L17.6492 37.5729C16.7502 38.0224 15.6569 37.658 15.2074 36.759C14.7579 35.8599 15.1223 34.7667 16.0214 34.3172L24.1406 30.2576L16.2248 26.2997C14.7996 25.5871 14.7996 23.5532 16.2248 22.8406L24.1406 18.8827L16.2248 14.9248C14.7996 14.2122 14.7996 12.1783 16.2248 11.4657L24.1406 7.50782L16.0214 3.44822C15.1223 2.99871 14.7579 1.90549 15.2074 1.00646" fill="url(#paint10_linear)"/>
<defs>
<linearGradient id="paint0_linear" x1="33.3289" y1="6.8252" x2="34.061" y2="3.06911" gradientUnits="userSpaceOnUse">
<stop stop-color="#01BBA5"/>
<stop offset="1" stop-color="#009FC2"/>
</linearGradient>
<linearGradient id="paint1_linear" x1="54.9412" y1="21.2715" x2="61.8597" y2="17.6405" gradientUnits="userSpaceOnUse">
<stop stop-color="#01BBA5"/>
<stop offset="1" stop-color="#009FC2"/>
</linearGradient>
<linearGradient id="paint2_linear" x1="54.9412" y1="21.2715" x2="61.8597" y2="17.6405" gradientUnits="userSpaceOnUse">
<stop stop-color="#01BBA5"/>
<stop offset="1" stop-color="#009FC2"/>
</linearGradient>
<linearGradient id="paint3_linear" x1="54.9412" y1="21.2715" x2="61.8597" y2="17.6405" gradientUnits="userSpaceOnUse">
<stop stop-color="#01BBA5"/>
<stop offset="1" stop-color="#009FC2"/>
</linearGradient>
<linearGradient id="paint4_linear" x1="54.9412" y1="21.2715" x2="61.8597" y2="17.6405" gradientUnits="userSpaceOnUse">
<stop stop-color="#01BBA5"/>
<stop offset="1" stop-color="#009FC2"/>
</linearGradient>
<linearGradient id="paint5_linear" x1="54.9412" y1="21.2715" x2="61.8597" y2="17.6405" gradientUnits="userSpaceOnUse">
<stop stop-color="#01BBA5"/>
<stop offset="1" stop-color="#009FC2"/>
</linearGradient>
<linearGradient id="paint6_linear" x1="54.9412" y1="21.2715" x2="61.8597" y2="17.6405" gradientUnits="userSpaceOnUse">
<stop stop-color="#01BBA5"/>
<stop offset="1" stop-color="#009FC2"/>
</linearGradient>
<linearGradient id="paint7_linear" x1="54.9412" y1="21.2715" x2="61.8597" y2="17.6405" gradientUnits="userSpaceOnUse">
<stop stop-color="#01BBA5"/>
<stop offset="1" stop-color="#009FC2"/>
</linearGradient>
<linearGradient id="paint8_linear" x1="54.9412" y1="21.2715" x2="61.8597" y2="17.6405" gradientUnits="userSpaceOnUse">
<stop stop-color="#01BBA5"/>
<stop offset="1" stop-color="#009FC2"/>
</linearGradient>
<linearGradient id="paint9_linear" x1="54.9412" y1="21.2715" x2="61.8597" y2="17.6405" gradientUnits="userSpaceOnUse">
<stop stop-color="#01BBA5"/>
<stop offset="1" stop-color="#009FC2"/>
</linearGradient>
<linearGradient id="paint10_linear" x1="15.0149" y1="0" x2="22.4391" y2="-1.41188" gradientUnits="userSpaceOnUse">
<stop stop-color="#01BBA5"/>
<stop offset="1" stop-color="#009FC2"/>
</linearGradient>
</defs>
</svg>
