<svg width="78" height="183" viewBox="0 0 78 183" fill="none" xmlns="http://www.w3.org/2000/svg">
<path d="M0 58.8358H77.9999V77.7872H50.05L50.05 147.116C50.05 153.219 45.1027 158.167 39 158.167C32.8972 158.167 27.95 153.219 27.95 147.116V77.7872H0V58.8358Z" fill="white"/>
<path d="M0 58.8358H77.9999V77.7872H50.05L50.05 147.116C50.05 153.219 45.1027 158.167 39 158.167C32.8972 158.167 27.95 153.219 27.95 147.116V77.7872H0V58.8358Z" fill="url(#paint0_linear)"/>
<path d="M0 86.9361L1.52588e-05 144.031C0.0192413 165.556 17.4727 183 39 183C60.5391 183 77.9999 165.537 77.9999 143.996V86.9361H59.15L59.15 147.164C59.15 158.294 50.1285 167.316 39 167.316C27.8715 167.316 18.85 158.294 18.85 147.164V86.9361H0Z" fill="white"/>
<path d="M0 86.9361L1.52588e-05 144.031C0.0192413 165.556 17.4727 183 39 183C60.5391 183 77.9999 165.537 77.9999 143.996V86.9361H59.15L59.15 147.164C59.15 158.294 50.1285 167.316 39 167.316C27.8715 167.316 18.85 158.294 18.85 147.164V86.9361H0Z" fill="url(#paint1_linear)"/>
<path d="M0 49.6849H18.85V33.6846L27.95 49.6849L50.05 49.6831L59.15 33.6828V49.6831H78L78 0H59.15L39 35.4291L18.85 0.00176564H0V49.6849Z" fill="white"/>
<path d="M0 49.6849H18.85V33.6846L27.95 49.6849L50.05 49.6831L59.15 33.6828V49.6831H78L78 0H59.15L39 35.4291L18.85 0.00176564H0V49.6849Z" fill="url(#paint2_linear)"/>
<defs>
<linearGradient id="paint0_linear" x1="77.9998" y1="58.8317" x2="41.0593" y2="47.6271" gradientUnits="userSpaceOnUse">
<stop stop-color="#01BBA5"/>
<stop offset="1" stop-color="#009FC2"/>
</linearGradient>
<linearGradient id="paint1_linear" x1="77.9998" y1="58.8317" x2="41.0593" y2="47.6271" gradientUnits="userSpaceOnUse">
<stop stop-color="#01BBA5"/>
<stop offset="1" stop-color="#009FC2"/>
</linearGradient>
<linearGradient id="paint2_linear" x1="77.9998" y1="58.8317" x2="41.0593" y2="47.6271" gradientUnits="userSpaceOnUse">
<stop stop-color="#01BBA5"/>
<stop offset="1" stop-color="#009FC2"/>
</linearGradient>
</defs>
</svg>
