<svg width="85" height="122" viewBox="0 0 85 122" fill="none" xmlns="http://www.w3.org/2000/svg">
<g filter="url(#filter0_di)">
<path d="M42.5 109.15L69.6901 56.1043L69.6909 56.1027C71.8044 51.9824 73 47.3112 73 42.3446C73 25.6085 59.3717 12 42.4998 12C25.6278 12 12 25.6095 12 42.3456C12 47.3122 13.1956 51.9834 15.3091 56.1037L15.3099 56.1053L42.5 109.15Z" fill="white"/>
<path d="M67.909 55.1946L42.5 104.766L17.0897 55.193L17.0887 55.191L17.0886 55.1909C17.0884 55.1905 17.0882 55.1901 17.088 55.1897C17.088 55.1896 17.0879 55.1895 17.0879 55.1894C15.1163 51.3452 14 46.9867 14 42.3456C14 26.7214 26.725 14 42.4998 14C58.2746 14 71 26.7206 71 42.3446C71 46.9863 69.8834 51.3453 67.9114 55.1899L67.9103 55.192L67.9098 55.193L67.909 55.1946Z" stroke="white" stroke-width="4"/>
<path d="M67.909 55.1946L42.5 104.766L17.0897 55.193L17.0887 55.191L17.0886 55.1909C17.0884 55.1905 17.0882 55.1901 17.088 55.1897C17.088 55.1896 17.0879 55.1895 17.0879 55.1894C15.1163 51.3452 14 46.9867 14 42.3456C14 26.7214 26.725 14 42.4998 14C58.2746 14 71 26.7206 71 42.3446C71 46.9863 69.8834 51.3453 67.9114 55.1899L67.9103 55.192L67.9098 55.193L67.909 55.1946Z" stroke="url(#paint0_linear)" stroke-width="4"/>
</g>
<path fill-rule="evenodd" clip-rule="evenodd" d="M22.1096 30.5731C22.3656 30.0612 22.9881 29.8537 23.5 30.1096L29.8612 33.2902C30.6727 33.696 30.6727 34.8541 29.8612 35.2599L25.3538 37.5136L29.8612 39.7672C30.6727 40.173 30.6727 41.3312 29.8612 41.7369M29.8612 41.7369L25.3538 43.9906L29.8612 46.2443C30.6727 46.65 30.6727 47.8082 29.8612 48.214L23.5 51.3946C22.9881 51.6505 22.3656 51.443 22.1096 50.9311C21.8537 50.4192 22.0612 49.7967 22.5731 49.5407L27.1963 47.2291L22.689 44.9755C21.8774 44.5697 21.8774 43.4115 22.689 43.0058L27.1963 40.7521L22.689 38.4984C21.8774 38.0927 21.8774 36.9345 22.689 36.5287L27.1963 34.2751L22.5731 31.9635C22.0612 31.7075 21.8537 31.085 22.1096 30.5731" fill="#393840"/>
<path fill-rule="evenodd" clip-rule="evenodd" d="M30.6593 30.5731C30.9153 30.0612 31.5378 29.8537 32.0497 30.1096L38.4109 33.2902C39.2224 33.696 39.2224 34.8541 38.4109 35.2599L33.9035 37.5136L38.4108 39.7672C39.2224 40.173 39.2224 41.3312 38.4109 41.7369M38.4109 41.7369L33.9035 43.9906L38.4108 46.2443C39.2224 46.65 39.2224 47.8082 38.4108 48.214L32.0497 51.3946C31.5378 51.6505 30.9153 51.443 30.6593 50.9311C30.4034 50.4192 30.6109 49.7967 31.1228 49.5407L35.746 47.2291L31.2386 44.9755C30.4271 44.5697 30.4271 43.4115 31.2386 43.0058L35.746 40.7521L31.2386 38.4984C30.4271 38.0927 30.4271 36.9345 31.2386 36.5287L35.746 34.2751L31.1228 31.9635C30.6109 31.7075 30.4034 31.085 30.6593 30.5731" fill="#393840"/>
<path fill-rule="evenodd" clip-rule="evenodd" d="M40.9779 31.0366C40.9779 30.4642 41.4419 30.0002 42.0142 30.0002H61.9635C62.5358 30.0002 62.9998 30.4642 62.9998 31.0366C62.9998 31.6089 62.5358 32.0729 61.9635 32.0729H42.0142C41.4419 32.0729 40.9779 31.6089 40.9779 31.0366ZM40.9779 34.9228C40.9779 34.3504 41.4419 33.8864 42.0142 33.8864H61.9635C62.5358 33.8864 62.9998 34.3504 62.9998 34.9228C62.9998 35.4951 62.5358 35.9591 61.9635 35.9591H42.0142C41.4419 35.9591 40.9779 35.4951 40.9779 34.9228ZM40.9779 38.809C40.9779 38.2366 41.4419 37.7727 42.0142 37.7727H61.9635C62.5358 37.7727 62.9998 38.2366 62.9998 38.809C62.9998 39.3813 62.5358 39.8453 61.9635 39.8453H42.0142C41.4419 39.8453 40.9779 39.3813 40.9779 38.809Z" fill="#393840"/>
<path d="M61.8987 44.3145C61.2906 44.3145 60.7976 43.8215 60.7976 43.2134C60.7976 42.6052 61.2906 42.1123 61.8987 42.1123C62.5068 42.1123 62.9998 42.6052 62.9998 43.2134C62.9998 43.8215 62.5068 44.3145 61.8987 44.3145Z" fill="#393840"/>
<path d="M58.1421 44.3145C57.5339 44.3145 57.041 43.8215 57.041 43.2134C57.041 42.6052 57.5339 42.1123 58.1421 42.1123C58.7502 42.1123 59.2431 42.6052 59.2431 43.2134C59.2431 43.8215 58.7502 44.3145 58.1421 44.3145Z" fill="#393840"/>
<path d="M54.3854 44.3145C53.7773 44.3145 53.2843 43.8215 53.2843 43.2134C53.2843 42.6052 53.7773 42.1123 54.3854 42.1123C54.9935 42.1123 55.4865 42.6052 55.4865 43.2134C55.4865 43.8215 54.9935 44.3145 54.3854 44.3145Z" fill="#393840"/>
<path d="M50.6287 44.3145C50.0206 44.3145 49.5276 43.8215 49.5276 43.2134C49.5276 42.6052 50.0206 42.1123 50.6287 42.1123C51.2368 42.1123 51.7298 42.6052 51.7298 43.2134C51.7298 43.8215 51.2368 44.3145 50.6287 44.3145Z" fill="#393840"/>
<path d="M46.872 44.3145C46.2639 44.3145 45.7709 43.8215 45.7709 43.2134C45.7709 42.6052 46.2639 42.1123 46.872 42.1123C47.4801 42.1123 47.9731 42.6052 47.9731 43.2134C47.9731 43.8215 47.4801 44.3145 46.872 44.3145Z" fill="#393840"/>
<path d="M43.1153 44.3145C42.5072 44.3145 42.0142 43.8215 42.0142 43.2134C42.0142 42.6052 42.5072 42.1123 43.1153 42.1123C43.7235 42.1123 44.2164 42.6052 44.2164 43.2134C44.2164 43.8215 43.7235 44.3145 43.1153 44.3145Z" fill="#393840"/>
<path d="M61.8987 47.6825C61.2906 47.6825 60.7976 47.1895 60.7976 46.5814C60.7976 45.9733 61.2906 45.4803 61.8987 45.4803C62.5068 45.4803 62.9998 45.9733 62.9998 46.5814C62.9998 47.1895 62.5068 47.6825 61.8987 47.6825Z" fill="#393840"/>
<path d="M58.1421 47.6825C57.5339 47.6825 57.041 47.1895 57.041 46.5814C57.041 45.9733 57.5339 45.4803 58.1421 45.4803C58.7502 45.4803 59.2431 45.9733 59.2431 46.5814C59.2431 47.1895 58.7502 47.6825 58.1421 47.6825Z" fill="#393840"/>
<path d="M54.3854 47.6825C53.7773 47.6825 53.2843 47.1895 53.2843 46.5814C53.2843 45.9733 53.7773 45.4803 54.3854 45.4803C54.9935 45.4803 55.4865 45.9733 55.4865 46.5814C55.4865 47.1895 54.9935 47.6825 54.3854 47.6825Z" fill="#393840"/>
<path d="M50.6287 47.6825C50.0206 47.6825 49.5276 47.1895 49.5276 46.5814C49.5276 45.9733 50.0206 45.4803 50.6287 45.4803C51.2368 45.4803 51.7298 45.9733 51.7298 46.5814C51.7298 47.1895 51.2368 47.6825 50.6287 47.6825Z" fill="#393840"/>
<path d="M46.872 47.6825C46.2639 47.6825 45.7709 47.1895 45.7709 46.5814C45.7709 45.9733 46.2639 45.4803 46.872 45.4803C47.4801 45.4803 47.9731 45.9733 47.9731 46.5814C47.9731 47.1895 47.4801 47.6825 46.872 47.6825Z" fill="#393840"/>
<path d="M43.1153 47.6825C42.5072 47.6825 42.0142 47.1895 42.0142 46.5814C42.0142 45.9733 42.5072 45.4803 43.1153 45.4803C43.7235 45.4803 44.2164 45.9733 44.2164 46.5814C44.2164 47.1895 43.7235 47.6825 43.1153 47.6825Z" fill="#393840"/>
<path d="M61.8987 51.0506C61.2906 51.0506 60.7976 50.5576 60.7976 49.9495C60.7976 49.3414 61.2906 48.8484 61.8987 48.8484C62.5068 48.8484 62.9998 49.3414 62.9998 49.9495C62.9998 50.5576 62.5068 51.0506 61.8987 51.0506Z" fill="#393840"/>
<path d="M58.1421 51.0506C57.5339 51.0506 57.041 50.5576 57.041 49.9495C57.041 49.3414 57.5339 48.8484 58.1421 48.8484C58.7502 48.8484 59.2431 49.3414 59.2431 49.9495C59.2431 50.5576 58.7502 51.0506 58.1421 51.0506Z" fill="#393840"/>
<path d="M54.3854 51.0506C53.7773 51.0506 53.2843 50.5576 53.2843 49.9495C53.2843 49.3414 53.7773 48.8484 54.3854 48.8484C54.9935 48.8484 55.4865 49.3414 55.4865 49.9495C55.4865 50.5576 54.9935 51.0506 54.3854 51.0506Z" fill="#393840"/>
<path d="M50.6287 51.0506C50.0206 51.0506 49.5276 50.5576 49.5276 49.9495C49.5276 49.3414 50.0206 48.8484 50.6287 48.8484C51.2368 48.8484 51.7298 49.3414 51.7298 49.9495C51.7298 50.5576 51.2368 51.0506 50.6287 51.0506Z" fill="#393840"/>
<path d="M46.872 51.0506C46.2639 51.0506 45.7709 50.5576 45.7709 49.9495C45.7709 49.3414 46.2639 48.8484 46.872 48.8484C47.4801 48.8484 47.9731 49.3414 47.9731 49.9495C47.9731 50.5576 47.4801 51.0506 46.872 51.0506Z" fill="#393840"/>
<path d="M43.1153 51.0506C42.5072 51.0506 42.0142 50.5576 42.0142 49.9495C42.0142 49.3414 42.5072 48.8484 43.1153 48.8484C43.7235 48.8484 44.2164 49.3414 44.2164 49.9495C44.2164 50.5576 43.7235 51.0506 43.1153 51.0506Z" fill="#393840"/>
<path fill-rule="evenodd" clip-rule="evenodd" d="M40.9785 34.9221C40.9785 34.3497 41.4425 33.8857 42.0148 33.8857H61.9641C62.5364 33.8857 63.0004 34.3497 63.0004 34.9221C63.0004 35.4944 62.5364 35.9584 61.9641 35.9584H42.0148C41.4425 35.9584 40.9785 35.4944 40.9785 34.9221Z" fill="#393840"/>
<path fill-rule="evenodd" clip-rule="evenodd" d="M40.9785 34.9221C40.9785 34.3497 41.4425 33.8857 42.0148 33.8857H61.9641C62.5364 33.8857 63.0004 34.3497 63.0004 34.9221C63.0004 35.4944 62.5364 35.9584 61.9641 35.9584H42.0148C41.4425 35.9584 40.9785 35.4944 40.9785 34.9221Z" fill="url(#paint1_linear)"/>
<path d="M61.8986 44.3135C61.2905 44.3135 60.7975 43.8205 60.7975 43.2124C60.7975 42.6043 61.2905 42.1113 61.8986 42.1113C62.5067 42.1113 62.9997 42.6043 62.9997 43.2124C62.9997 43.8205 62.5067 44.3135 61.8986 44.3135Z" fill="#393840"/>
<path d="M61.8986 44.3135C61.2905 44.3135 60.7975 43.8205 60.7975 43.2124C60.7975 42.6043 61.2905 42.1113 61.8986 42.1113C62.5067 42.1113 62.9997 42.6043 62.9997 43.2124C62.9997 43.8205 62.5067 44.3135 61.8986 44.3135Z" fill="url(#paint2_linear)"/>
<path d="M58.142 44.3135C57.5338 44.3135 57.0409 43.8205 57.0409 43.2124C57.0409 42.6043 57.5338 42.1113 58.142 42.1113C58.7501 42.1113 59.243 42.6043 59.243 43.2124C59.243 43.8205 58.7501 44.3135 58.142 44.3135Z" fill="#393840"/>
<path d="M58.142 44.3135C57.5338 44.3135 57.0409 43.8205 57.0409 43.2124C57.0409 42.6043 57.5338 42.1113 58.142 42.1113C58.7501 42.1113 59.243 42.6043 59.243 43.2124C59.243 43.8205 58.7501 44.3135 58.142 44.3135Z" fill="url(#paint3_linear)"/>
<path d="M54.3853 44.3135C53.7772 44.3135 53.2842 43.8205 53.2842 43.2124C53.2842 42.6043 53.7772 42.1113 54.3853 42.1113C54.9934 42.1113 55.4864 42.6043 55.4864 43.2124C55.4864 43.8205 54.9934 44.3135 54.3853 44.3135Z" fill="#393840"/>
<path d="M54.3853 44.3135C53.7772 44.3135 53.2842 43.8205 53.2842 43.2124C53.2842 42.6043 53.7772 42.1113 54.3853 42.1113C54.9934 42.1113 55.4864 42.6043 55.4864 43.2124C55.4864 43.8205 54.9934 44.3135 54.3853 44.3135Z" fill="url(#paint4_linear)"/>
<path d="M61.8986 47.6816C61.2905 47.6816 60.7975 47.1886 60.7975 46.5805C60.7975 45.9724 61.2905 45.4794 61.8986 45.4794C62.5067 45.4794 62.9997 45.9724 62.9997 46.5805C62.9997 47.1886 62.5067 47.6816 61.8986 47.6816Z" fill="#393840"/>
<path d="M61.8986 47.6816C61.2905 47.6816 60.7975 47.1886 60.7975 46.5805C60.7975 45.9724 61.2905 45.4794 61.8986 45.4794C62.5067 45.4794 62.9997 45.9724 62.9997 46.5805C62.9997 47.1886 62.5067 47.6816 61.8986 47.6816Z" fill="url(#paint5_linear)"/>
<path d="M58.142 47.6816C57.5338 47.6816 57.0409 47.1886 57.0409 46.5805C57.0409 45.9724 57.5338 45.4794 58.142 45.4794C58.7501 45.4794 59.243 45.9724 59.243 46.5805C59.243 47.1886 58.7501 47.6816 58.142 47.6816Z" fill="#393840"/>
<path d="M58.142 47.6816C57.5338 47.6816 57.0409 47.1886 57.0409 46.5805C57.0409 45.9724 57.5338 45.4794 58.142 45.4794C58.7501 45.4794 59.243 45.9724 59.243 46.5805C59.243 47.1886 58.7501 47.6816 58.142 47.6816Z" fill="url(#paint6_linear)"/>
<path d="M54.3853 47.6816C53.7772 47.6816 53.2842 47.1886 53.2842 46.5805C53.2842 45.9724 53.7772 45.4794 54.3853 45.4794C54.9934 45.4794 55.4864 45.9724 55.4864 46.5805C55.4864 47.1886 54.9934 47.6816 54.3853 47.6816Z" fill="#393840"/>
<path d="M54.3853 47.6816C53.7772 47.6816 53.2842 47.1886 53.2842 46.5805C53.2842 45.9724 53.7772 45.4794 54.3853 45.4794C54.9934 45.4794 55.4864 45.9724 55.4864 46.5805C55.4864 47.1886 54.9934 47.6816 54.3853 47.6816Z" fill="url(#paint7_linear)"/>
<path d="M61.8986 51.0496C61.2905 51.0496 60.7975 50.5567 60.7975 49.9485C60.7975 49.3404 61.2905 48.8474 61.8986 48.8474C62.5067 48.8474 62.9997 49.3404 62.9997 49.9485C62.9997 50.5567 62.5067 51.0496 61.8986 51.0496Z" fill="#393840"/>
<path d="M61.8986 51.0496C61.2905 51.0496 60.7975 50.5567 60.7975 49.9485C60.7975 49.3404 61.2905 48.8474 61.8986 48.8474C62.5067 48.8474 62.9997 49.3404 62.9997 49.9485C62.9997 50.5567 62.5067 51.0496 61.8986 51.0496Z" fill="url(#paint8_linear)"/>
<path d="M58.142 51.0496C57.5338 51.0496 57.0409 50.5567 57.0409 49.9485C57.0409 49.3404 57.5338 48.8474 58.142 48.8474C58.7501 48.8474 59.243 49.3404 59.243 49.9485C59.243 50.5567 58.7501 51.0496 58.142 51.0496Z" fill="#393840"/>
<path d="M58.142 51.0496C57.5338 51.0496 57.0409 50.5567 57.0409 49.9485C57.0409 49.3404 57.5338 48.8474 58.142 48.8474C58.7501 48.8474 59.243 49.3404 59.243 49.9485C59.243 50.5567 58.7501 51.0496 58.142 51.0496Z" fill="url(#paint9_linear)"/>
<path d="M54.3853 51.0496C53.7772 51.0496 53.2842 50.5567 53.2842 49.9485C53.2842 49.3404 53.7772 48.8474 54.3853 48.8474C54.9934 48.8474 55.4864 49.3404 55.4864 49.9485C55.4864 50.5567 54.9934 51.0496 54.3853 51.0496Z" fill="#393840"/>
<path d="M54.3853 51.0496C53.7772 51.0496 53.2842 50.5567 53.2842 49.9485C53.2842 49.3404 53.7772 48.8474 54.3853 48.8474C54.9934 48.8474 55.4864 49.3404 55.4864 49.9485C55.4864 50.5567 54.9934 51.0496 54.3853 51.0496Z" fill="url(#paint10_linear)"/>
<path fill-rule="evenodd" clip-rule="evenodd" d="M30.6594 30.5731C30.9154 30.0612 31.5379 29.8537 32.0498 30.1096L38.411 33.2902C39.2225 33.696 39.2225 34.8541 38.411 35.2599L33.9036 37.5136L38.411 39.7672C39.2225 40.173 39.2225 41.3312 38.411 41.7369M38.411 41.7369L33.9036 43.9906L38.411 46.2443C39.2225 46.6501 39.2225 47.8082 38.411 48.214L32.0498 51.3946C31.5379 51.6505 30.9154 51.443 30.6594 50.9311C30.4035 50.4192 30.611 49.7967 31.1229 49.5407L35.7461 47.2291L31.2388 44.9755C30.4272 44.5697 30.4272 43.4115 31.2388 43.0058L35.7461 40.7521L31.2388 38.4984C30.4272 38.0927 30.4272 36.9345 31.2388 36.5287L35.7461 34.2751L31.1229 31.9635C30.611 31.7075 30.4035 31.085 30.6594 30.5731" fill="#393840"/>
<path fill-rule="evenodd" clip-rule="evenodd" d="M30.6594 30.5731C30.9154 30.0612 31.5379 29.8537 32.0498 30.1096L38.411 33.2902C39.2225 33.696 39.2225 34.8541 38.411 35.2599L33.9036 37.5136L38.411 39.7672C39.2225 40.173 39.2225 41.3312 38.411 41.7369M38.411 41.7369L33.9036 43.9906L38.411 46.2443C39.2225 46.6501 39.2225 47.8082 38.411 48.214L32.0498 51.3946C31.5379 51.6505 30.9154 51.443 30.6594 50.9311C30.4035 50.4192 30.611 49.7967 31.1229 49.5407L35.7461 47.2291L31.2388 44.9755C30.4272 44.5697 30.4272 43.4115 31.2388 43.0058L35.7461 40.7521L31.2388 38.4984C30.4272 38.0927 30.4272 36.9345 31.2388 36.5287L35.7461 34.2751L31.1229 31.9635C30.611 31.7075 30.4035 31.085 30.6594 30.5731" fill="url(#paint11_linear)"/>
<defs>
<filter id="filter0_di" x="0" y="0" width="85" height="121.15" filterUnits="userSpaceOnUse" color-interpolation-filters="sRGB">
<feFlood flood-opacity="0" result="BackgroundImageFix"/>
<feColorMatrix in="SourceAlpha" type="matrix" values="0 0 0 0 0 0 0 0 0 0 0 0 0 0 0 0 0 0 127 0"/>
<feOffset/>
<feGaussianBlur stdDeviation="6"/>
<feColorMatrix type="matrix" values="0 0 0 0 0 0 0 0 0 0 0 0 0 0 0 0 0 0 0.12 0"/>
<feBlend mode="normal" in2="BackgroundImageFix" result="effect1_dropShadow"/>
<feBlend mode="normal" in="SourceGraphic" in2="effect1_dropShadow" result="shape"/>
<feColorMatrix in="SourceAlpha" type="matrix" values="0 0 0 0 0 0 0 0 0 0 0 0 0 0 0 0 0 0 127 0" result="hardAlpha"/>
<feOffset dx="-5" dy="-5"/>
<feGaussianBlur stdDeviation="5"/>
<feComposite in2="hardAlpha" operator="arithmetic" k2="-1" k3="1"/>
<feColorMatrix type="matrix" values="0 0 0 0 1 0 0 0 0 1 0 0 0 0 1 0 0 0 0.1 0"/>
<feBlend mode="normal" in2="shape" result="effect2_innerShadow"/>
</filter>
<linearGradient id="paint0_linear" x1="12" y1="12" x2="40.8918" y2="3.24097" gradientUnits="userSpaceOnUse">
<stop stop-color="#01BBA5"/>
<stop offset="1" stop-color="#009FC2"/>
</linearGradient>
<linearGradient id="paint1_linear" x1="40.9785" y1="33.8857" x2="41.3954" y2="31.747" gradientUnits="userSpaceOnUse">
<stop stop-color="#01BBA5"/>
<stop offset="1" stop-color="#009FC2"/>
</linearGradient>
<linearGradient id="paint2_linear" x1="53.2842" y1="42.1113" x2="57.2237" y2="40.0438" gradientUnits="userSpaceOnUse">
<stop stop-color="#01BBA5"/>
<stop offset="1" stop-color="#009FC2"/>
</linearGradient>
<linearGradient id="paint3_linear" x1="53.2842" y1="42.1113" x2="57.2237" y2="40.0438" gradientUnits="userSpaceOnUse">
<stop stop-color="#01BBA5"/>
<stop offset="1" stop-color="#009FC2"/>
</linearGradient>
<linearGradient id="paint4_linear" x1="53.2842" y1="42.1113" x2="57.2237" y2="40.0438" gradientUnits="userSpaceOnUse">
<stop stop-color="#01BBA5"/>
<stop offset="1" stop-color="#009FC2"/>
</linearGradient>
<linearGradient id="paint5_linear" x1="53.2842" y1="42.1113" x2="57.2237" y2="40.0438" gradientUnits="userSpaceOnUse">
<stop stop-color="#01BBA5"/>
<stop offset="1" stop-color="#009FC2"/>
</linearGradient>
<linearGradient id="paint6_linear" x1="53.2842" y1="42.1113" x2="57.2237" y2="40.0438" gradientUnits="userSpaceOnUse">
<stop stop-color="#01BBA5"/>
<stop offset="1" stop-color="#009FC2"/>
</linearGradient>
<linearGradient id="paint7_linear" x1="53.2842" y1="42.1113" x2="57.2237" y2="40.0438" gradientUnits="userSpaceOnUse">
<stop stop-color="#01BBA5"/>
<stop offset="1" stop-color="#009FC2"/>
</linearGradient>
<linearGradient id="paint8_linear" x1="53.2842" y1="42.1113" x2="57.2237" y2="40.0438" gradientUnits="userSpaceOnUse">
<stop stop-color="#01BBA5"/>
<stop offset="1" stop-color="#009FC2"/>
</linearGradient>
<linearGradient id="paint9_linear" x1="53.2842" y1="42.1113" x2="57.2237" y2="40.0438" gradientUnits="userSpaceOnUse">
<stop stop-color="#01BBA5"/>
<stop offset="1" stop-color="#009FC2"/>
</linearGradient>
<linearGradient id="paint10_linear" x1="53.2842" y1="42.1113" x2="57.2237" y2="40.0438" gradientUnits="userSpaceOnUse">
<stop stop-color="#01BBA5"/>
<stop offset="1" stop-color="#009FC2"/>
</linearGradient>
<linearGradient id="paint11_linear" x1="30.5498" y1="30" x2="34.7772" y2="29.1961" gradientUnits="userSpaceOnUse">
<stop stop-color="#01BBA5"/>
<stop offset="1" stop-color="#009FC2"/>
</linearGradient>
</defs>
</svg>
