<svg width="58" height="58" viewBox="0 0 58 58" fill="none" xmlns="http://www.w3.org/2000/svg">
<mask id="mask0" mask-type="alpha" maskUnits="userSpaceOnUse" x="0" y="0" width="58" height="58">
<rect width="58" height="58" fill="#26CF92"/>
</mask>
<g mask="url(#mask0)">
<path d="M55.6888 38.9959C56.8775 37.5734 57.4475 36.0485 57.3747 34.4781C57.302 32.7483 56.4772 31.3941 55.798 30.5634C56.5864 28.7199 56.8896 25.818 54.2576 23.5648C52.3292 21.9147 49.0544 21.175 44.5182 21.3799C41.3283 21.5164 38.66 22.074 38.5508 22.0968H38.5387C37.9322 22.1992 37.2894 22.3244 36.6345 22.461C36.5859 21.7326 36.7194 19.9233 38.1506 15.8493C39.8486 11.0015 39.7516 7.29163 37.8352 4.81082C35.8218 2.20484 32.6077 2 31.6616 2C30.752 2 29.9151 2.35278 29.3208 3.00143C27.9745 4.46943 28.1322 7.17783 28.302 8.42961C26.701 12.4581 22.2133 22.3358 18.417 25.0783C18.3442 25.1238 18.2836 25.1807 18.2229 25.2376C17.1071 26.3415 16.3551 27.5364 15.8457 28.5833C15.1301 28.2192 14.3174 28.0143 13.4442 28.0143H6.04559C3.25596 28.0143 1 30.1424 1 32.7483V51.2406C1 53.8579 3.26809 55.9746 6.04559 55.9746H13.4442C14.5236 55.9746 15.5303 55.656 16.3551 55.1097L19.2054 55.4284C19.642 55.4853 27.4044 56.407 35.3731 56.2591C36.8164 56.3615 38.1748 56.4184 39.4362 56.4184C41.6073 56.4184 43.4994 56.2591 45.0761 55.9405C48.7875 55.2008 51.3225 53.7214 52.6081 51.5478C53.5905 49.8864 53.5905 48.2363 53.4329 47.1894C55.8465 45.141 56.271 42.8764 56.1861 41.2832C56.1376 40.3615 55.9193 39.5762 55.6888 38.9959ZM6.04559 52.902C5.06315 52.902 4.27478 52.151 4.27478 51.2406V32.737C4.27478 31.8152 5.07528 31.0755 6.04559 31.0755H13.4442C14.4266 31.0755 15.215 31.8266 15.215 32.737V51.2292C15.215 52.151 14.4145 52.8907 13.4442 52.8907H6.04559V52.902ZM52.5839 37.6644C52.0744 38.1651 51.9774 38.9276 52.3655 39.5193C52.3655 39.5307 52.8628 40.3273 52.9235 41.4198C53.0084 42.9105 52.2442 44.2306 50.6432 45.3572C50.0732 45.7669 49.8427 46.4724 50.0853 47.1097C50.0853 47.1211 50.6069 48.6232 49.7578 50.0457C48.9452 51.4113 47.138 52.3899 44.3969 52.9362C42.2016 53.38 39.2179 53.4596 35.555 53.1865C35.5065 53.1865 35.4458 53.1865 35.3852 53.1865C27.5864 53.3459 19.7026 52.3899 19.6177 52.3786H19.6056L18.3806 52.242C18.4534 51.9234 18.4898 51.582 18.4898 51.2406V32.737C18.4898 32.2476 18.4049 31.7697 18.2593 31.3259C18.4776 30.5634 19.0841 28.8678 20.5153 27.4226C25.9611 23.3713 31.2857 9.70415 31.5161 9.1124C31.6131 8.87343 31.6374 8.61169 31.5889 8.34995C31.3827 7.07541 31.4555 5.51637 31.7465 5.0498C32.3894 5.06118 34.1238 5.23188 35.1669 6.58608C36.404 8.19063 36.3555 11.0584 35.0213 14.8592C32.9837 20.6516 32.8139 23.7014 34.427 25.0442C35.2275 25.7156 36.2949 25.7497 37.0711 25.488C37.811 25.3287 38.5144 25.1921 39.1815 25.0897C39.23 25.0783 39.2907 25.0669 39.3392 25.0556C43.0627 24.2931 49.7336 23.8265 52.0502 25.8066C54.0151 27.4908 52.6202 29.7213 52.4626 29.9603C52.0138 30.5975 52.1472 31.4283 52.7537 31.9404C52.7658 31.9517 54.0393 33.0784 54.1 34.5919C54.1485 35.6047 53.6391 36.6402 52.5839 37.6644Z" fill="url(#paint0_linear)"/>
</g>
<defs>
<linearGradient id="paint0_linear" x1="1.00001" y1="29.2092" x2="24.9917" y2="1.33319" gradientUnits="userSpaceOnUse">
<stop stop-color="#01BBA5"/>
<stop offset="1" stop-color="#009FC2"/>
</linearGradient>
</defs>
</svg>
