<svg width="67" height="37" viewBox="0 0 67 37" fill="none" xmlns="http://www.w3.org/2000/svg">
<g clip-path="url(#clip0)">
<path d="M0.592938 34.2434C0.715724 34.1166 0.86409 34.0163 1.0278 33.9371C1.19152 33.8631 1.37058 33.8261 1.55476 33.8261H2.3631C2.39379 33.8261 2.40914 33.8103 2.40914 33.7786C2.40914 33.7469 2.38868 33.7311 2.35286 33.7311H1.55987C1.36035 33.7311 1.17105 33.7681 0.991991 33.8473C0.812929 33.9265 0.659447 34.0321 0.526429 34.1694C0.393412 34.3067 0.29109 34.4652 0.214349 34.65C0.137608 34.8349 0.0966797 35.0303 0.0966797 35.2415C0.0966797 35.4528 0.137608 35.6482 0.214349 35.8277C0.29109 36.0126 0.398528 36.171 0.526429 36.303C0.659447 36.4403 0.812929 36.546 0.991991 36.6252C1.17105 36.7044 1.36035 36.7414 1.55987 36.7414H2.38356C2.40403 36.7308 2.41426 36.715 2.41426 36.6938C2.41426 36.6621 2.39379 36.6463 2.35798 36.6463H1.55987C1.37058 36.6463 1.19663 36.6093 1.03292 36.5354C0.869206 36.4615 0.72084 36.3611 0.598054 36.2291C0.475269 36.1023 0.378063 35.9545 0.301322 35.7802C0.229697 35.6112 0.193885 35.4263 0.193885 35.2362C0.193885 35.0408 0.229697 34.856 0.301322 34.687C0.372947 34.518 0.470153 34.3701 0.592938 34.2434ZM6.6964 34.0268C6.60432 33.9371 6.50199 33.8631 6.37921 33.8103C6.25642 33.7575 6.12852 33.7311 5.99039 33.7311H4.99787V36.7044C4.99787 36.7361 5.01322 36.7519 5.04392 36.7519C5.07461 36.7519 5.08996 36.7308 5.08996 36.6886V35.7696H5.65273L6.58385 36.7255C6.59408 36.7414 6.60432 36.7466 6.62478 36.7466C6.65548 36.7466 6.67082 36.7308 6.67082 36.6991C6.67082 36.6833 6.66059 36.6727 6.64524 36.6569L5.78574 35.7696H5.99039C6.12852 35.7696 6.25642 35.7432 6.37921 35.6904C6.50199 35.6376 6.60432 35.5637 6.6964 35.4739C6.78849 35.3841 6.855 35.2732 6.90616 35.1464C6.95732 35.0197 6.9829 34.8877 6.9829 34.7451C6.9829 34.6025 6.95732 34.4705 6.90616 34.3437C6.86012 34.2275 6.78849 34.1166 6.6964 34.0268ZM6.81919 35.1095C6.77315 35.2204 6.70664 35.3207 6.6299 35.4052C6.54804 35.4897 6.45595 35.5584 6.3434 35.6059C6.23596 35.6534 6.11829 35.6798 5.9955 35.6798H5.09508V33.8261H5.9955C6.11829 33.8261 6.23084 33.8526 6.3434 33.9001C6.45083 33.9476 6.54804 34.0163 6.6299 34.1008C6.71175 34.1853 6.77315 34.2856 6.81919 34.3965C6.86524 34.5074 6.89082 34.6289 6.89082 34.7556C6.8857 34.8824 6.86524 34.9986 6.81919 35.1095ZM9.66884 33.8261H11.2548C11.2855 33.8261 11.3009 33.8103 11.3009 33.7786C11.3009 33.7469 11.2804 33.7311 11.2395 33.7311H9.56652V36.7519H11.2548C11.2855 36.7519 11.3009 36.7361 11.3009 36.7044C11.3009 36.6727 11.2804 36.6569 11.2446 36.6569H9.65861V35.2679H9.95022C9.98092 35.2679 9.99627 35.2521 9.99627 35.2204C9.99627 35.1887 9.9758 35.1729 9.93487 35.1729H9.65349C9.65349 34.9405 9.65349 34.7187 9.65349 34.5021C9.66884 34.2803 9.66884 34.0585 9.66884 33.8261ZM13.8538 36.7466H15.3272C15.3579 36.7466 15.3733 36.7308 15.3733 36.6991C15.3733 36.6674 15.3528 36.6516 15.317 36.6516H14.0073L15.363 33.9318L16.729 36.7308C16.7392 36.7466 16.7495 36.7519 16.7699 36.7519C16.8006 36.7519 16.816 36.7361 16.816 36.7097V36.6886L15.3579 33.7152L13.8538 36.7466ZM21.7274 33.7311H19.4712C19.4405 33.7311 19.4303 33.7469 19.4303 33.7786C19.4303 33.8103 19.4456 33.8261 19.4712 33.8261H20.5916V36.6991C20.5916 36.7308 20.607 36.7466 20.6377 36.7466C20.6684 36.7466 20.6837 36.7255 20.6837 36.6886V33.8261H21.7274C21.7581 33.8261 21.7735 33.8103 21.7735 33.7786C21.7735 33.7628 21.7683 33.7522 21.7632 33.7417C21.7479 33.7311 21.7376 33.7311 21.7274 33.7311ZM24.3878 33.7311C24.3571 33.7311 24.3417 33.7469 24.3417 33.7733V36.6991C24.3417 36.715 24.3468 36.7255 24.3519 36.7361C24.3622 36.7466 24.3724 36.7519 24.3878 36.7519C24.4031 36.7519 24.4133 36.7466 24.4236 36.7361C24.4338 36.7255 24.4389 36.715 24.4389 36.6991V33.7681C24.4287 33.7417 24.4133 33.7311 24.3878 33.7311ZM29.8824 33.7311C29.8619 33.7311 29.8466 33.7416 29.8364 33.7575C29.6061 34.2381 29.3759 34.7081 29.1406 35.1729C28.9104 35.6376 28.6801 36.1076 28.4448 36.5829L27.0788 33.7628C27.0686 33.7416 27.0583 33.7311 27.0379 33.7311C27.0072 33.7311 26.9918 33.7469 26.9918 33.7786C26.9918 33.7945 26.997 33.805 27.0021 33.8103L28.4448 36.81L29.9233 33.8103C29.9285 33.805 29.9285 33.7997 29.9285 33.7997C29.9285 33.7945 29.9285 33.7892 29.9285 33.7786C29.9285 33.7469 29.9131 33.7311 29.8824 33.7311ZM32.6349 33.8261H34.2208C34.2515 33.8261 34.2669 33.8103 34.2669 33.7786C34.2669 33.7469 34.2464 33.7311 34.2055 33.7311H32.5377V36.7519H34.226C34.2566 36.7519 34.272 36.7361 34.272 36.7044C34.272 36.6727 34.2515 36.6569 34.2157 36.6569H32.6297V35.2679H32.9214C32.9521 35.2679 32.9674 35.2521 32.9674 35.2204C32.9674 35.1887 32.9469 35.1729 32.906 35.1729H32.6246C32.6246 34.9405 32.6246 34.7187 32.6246 34.5021C32.6349 34.2803 32.6349 34.0585 32.6349 33.8261ZM39.9099 36.7466H41.3833C41.414 36.7466 41.4294 36.7308 41.4294 36.6991C41.4294 36.6674 41.4089 36.6516 41.3731 36.6516H40.0634L41.4191 33.9318L42.7851 36.7308C42.7954 36.7466 42.8056 36.7519 42.8261 36.7519C42.8568 36.7519 42.8721 36.7361 42.8721 36.7097V36.6886L41.414 33.7152L39.9099 36.7466ZM47.0468 34.7556C47.0468 34.7873 47.0673 34.8032 47.1082 34.8032H47.7528V36.6516H46.9547C46.7654 36.6516 46.5915 36.6146 46.4278 36.5407C46.2641 36.4667 46.1157 36.3664 45.9929 36.2344C45.8701 36.1076 45.7729 35.9597 45.6962 35.7855C45.6245 35.6165 45.5887 35.4316 45.5887 35.2415C45.5887 35.0461 45.6245 34.8613 45.6962 34.6923C45.7678 34.5233 45.865 34.3701 45.9929 34.2434C46.1157 34.1166 46.2641 34.0163 46.4278 33.9371C46.5915 33.8631 46.7705 33.8261 46.9547 33.8261H47.0673C47.098 33.8261 47.1133 33.8103 47.1133 33.7786C47.1133 33.7469 47.0929 33.7311 47.0519 33.7311H46.9496C46.745 33.7311 46.5557 33.7681 46.3766 33.8473C46.1975 33.9265 46.0441 34.0321 45.911 34.1694C45.778 34.3067 45.6757 34.4652 45.599 34.65C45.5222 34.8349 45.4864 35.0303 45.4864 35.2415C45.4864 35.4528 45.5222 35.6482 45.599 35.8277C45.6757 36.0126 45.778 36.171 45.911 36.303C46.0441 36.4403 46.1975 36.546 46.3766 36.6252C46.5557 36.7044 46.745 36.7414 46.9496 36.7414H47.8449V34.7028H47.0826C47.057 34.7134 47.0468 34.7292 47.0468 34.7556ZM50.5411 33.8261H52.1271C52.1578 33.8261 52.1731 33.8103 52.1731 33.7786C52.1731 33.7469 52.1526 33.7311 52.1117 33.7311H50.4388V36.7519H52.1271C52.1578 36.7519 52.1731 36.7361 52.1731 36.7044C52.1731 36.6727 52.1526 36.6569 52.1168 36.6569H50.5309V35.2679H50.8225C50.8532 35.2679 50.8685 35.2521 50.8685 35.2204C50.8685 35.1887 50.8481 35.1729 50.8071 35.1729H50.5257C50.5257 34.9405 50.5257 34.7187 50.5257 34.5021C50.536 34.2803 50.5411 34.0585 50.5411 33.8261ZM57.1766 33.7258C57.1459 33.7258 57.1306 33.7469 57.1306 33.7839V36.5143L54.7465 33.71V36.7044C54.7465 36.7361 54.7618 36.7519 54.7925 36.7519C54.8232 36.7519 54.8386 36.7308 54.8386 36.6938V33.9793L57.2227 36.7836V33.7681C57.2227 33.7417 57.2073 33.7258 57.1766 33.7258ZM60.323 34.2434C60.4458 34.1166 60.5942 34.0163 60.7579 33.9371C60.9216 33.8631 61.1007 33.8261 61.2848 33.8261H62.0932C62.1239 33.8261 62.1392 33.8103 62.1392 33.7786C62.1392 33.7469 62.1187 33.7311 62.0829 33.7311H61.2797C61.0802 33.7311 60.8909 33.7681 60.7118 33.8473C60.5328 33.9265 60.3793 34.0321 60.2463 34.1694C60.1132 34.3067 60.0109 34.4652 59.9342 34.65C59.8574 34.8349 59.8165 35.0303 59.8165 35.2415C59.8165 35.4528 59.8574 35.6482 59.9342 35.8277C60.0109 36.0126 60.1184 36.171 60.2463 36.303C60.3793 36.4403 60.5328 36.546 60.7118 36.6252C60.8909 36.7044 61.0802 36.7414 61.2797 36.7414H62.1034C62.1239 36.7308 62.1341 36.715 62.1341 36.6938C62.1341 36.6621 62.1136 36.6463 62.0778 36.6463H61.2746C61.0853 36.6463 60.9114 36.6093 60.7476 36.5354C60.5839 36.4615 60.4356 36.3611 60.3128 36.2291C60.19 36.1023 60.0928 35.9545 60.016 35.7802C59.9444 35.6112 59.9086 35.4263 59.9086 35.2362C59.9086 35.0408 59.9444 34.856 60.016 34.687C60.0979 34.518 60.2002 34.3701 60.323 34.2434ZM66.8665 33.7311C66.8613 33.7311 66.8562 33.7311 66.8511 33.7311C66.846 33.7311 66.8409 33.7364 66.8358 33.7469C66.672 33.9846 66.5032 34.2222 66.3344 34.4546C66.1656 34.687 66.0018 34.9194 65.833 35.1623C65.7051 34.988 65.5926 34.8296 65.4953 34.6975C65.3981 34.5655 65.3112 34.4493 65.2395 34.349C65.1679 34.2486 65.1065 34.1641 65.0554 34.0955C65.0042 34.0268 64.9684 33.9687 64.9326 33.9265C64.861 33.8209 64.8149 33.7628 64.8047 33.7469C64.7944 33.7364 64.7842 33.7364 64.774 33.7364C64.7382 33.7364 64.7228 33.7522 64.7228 33.7839C64.7228 33.7997 64.7279 33.8103 64.7331 33.8156L65.7767 35.2626V36.7044C65.7767 36.7361 65.7921 36.7519 65.8279 36.7519C65.8586 36.7519 65.8688 36.7308 65.8688 36.6938V35.2626L66.8971 33.8209C66.9074 33.8103 66.9125 33.7945 66.9125 33.7786C66.9227 33.7469 66.9074 33.7311 66.8665 33.7311Z" fill="white"/>
<path d="M57.3 37.0001L54.9159 34.1957V36.7096C54.9108 36.8047 54.8443 36.8417 54.7931 36.8417C54.7164 36.8417 54.6703 36.7888 54.6703 36.7149V33.5039L57.0544 36.3082V33.7838C57.0544 33.7046 57.1056 33.6465 57.1772 33.6465C57.2488 33.6465 57.3 33.6993 57.3 33.7732V37.0001ZM57.1772 33.8049V33.7257V33.8049ZM28.4403 36.9895L26.9259 33.8472C26.9157 33.8261 26.9106 33.8049 26.9106 33.7785C26.9106 33.6993 26.9617 33.6518 27.0333 33.6518C27.0845 33.6518 27.1254 33.6835 27.1459 33.731L28.4454 36.4086C28.6551 35.9808 28.8649 35.5583 29.0746 35.1358C29.3049 34.6711 29.5402 34.1957 29.7653 33.7204C29.7909 33.6729 29.8318 33.6465 29.883 33.6465C29.9597 33.6465 30.0058 33.6993 30.0058 33.7732C30.0058 33.7944 30.0058 33.8102 29.9955 33.8313L29.9904 33.8419L28.4403 36.9895ZM5.04448 36.8364C4.96774 36.8364 4.9217 36.7836 4.9217 36.7096V33.6518H5.99607C6.14444 33.6518 6.28257 33.6782 6.41559 33.7363C6.54349 33.7944 6.66116 33.8736 6.75837 33.9739C6.85557 34.0743 6.93231 34.1905 6.98859 34.3278C7.04487 34.4598 7.07045 34.6077 7.07045 34.7608C7.07045 34.914 7.04487 35.0566 6.98859 35.1939C6.93231 35.3259 6.85557 35.4474 6.75837 35.5477C6.66116 35.6481 6.54861 35.7273 6.41559 35.7854C6.28769 35.8435 6.14444 35.8699 5.99607 35.8699H5.97561L6.70209 36.6198C6.74302 36.6568 6.74814 36.6938 6.74814 36.7202C6.74814 36.7994 6.69697 36.8469 6.62535 36.8469C6.58442 36.8469 6.54861 36.8311 6.52814 36.7994L5.62772 35.8752H5.1775V36.7149C5.17239 36.7888 5.11099 36.8364 5.04448 36.8364ZM5.17239 35.6006H5.99607C6.10351 35.6006 6.21095 35.5794 6.31327 35.5319C6.41047 35.4897 6.50256 35.4263 6.57419 35.3471C6.64581 35.2678 6.70721 35.1781 6.74814 35.0777C6.78906 34.9774 6.81464 34.8665 6.81464 34.7503C6.81464 34.6341 6.79418 34.5285 6.74814 34.4228C6.70721 34.3172 6.64581 34.2274 6.57419 34.1535C6.50256 34.0743 6.41559 34.0162 6.31327 33.9687C6.21606 33.9264 6.10863 33.9 5.99607 33.9H5.17239V35.6006ZM65.8387 36.8258C65.762 36.8258 65.7108 36.773 65.7108 36.6991V35.2837L64.6876 33.8577C64.6671 33.8366 64.6569 33.8049 64.6569 33.7732C64.6569 33.694 64.7081 33.6465 64.7848 33.6465C64.8206 33.6465 64.8462 33.6571 64.8718 33.6835L64.882 33.694C64.8871 33.7046 64.9127 33.7363 65.0048 33.8683C65.0355 33.9158 65.0764 33.9739 65.1276 34.0373C65.1787 34.106 65.235 34.1905 65.3066 34.2855C65.3783 34.3859 65.4652 34.5021 65.5624 34.6341C65.6443 34.745 65.7364 34.8717 65.8387 35.0143C65.9871 34.8031 66.1354 34.5971 66.2787 34.3964C66.4475 34.1641 66.6112 33.9264 66.7801 33.694L66.7903 33.6835C66.8056 33.6676 66.821 33.6571 66.8363 33.6518C66.8466 33.6465 66.8619 33.6465 66.8773 33.6465C66.9693 33.6465 67.0154 33.7099 67.0154 33.7732C67.0154 33.8102 67.0052 33.8419 66.9796 33.863L65.9717 35.2784V36.6832C65.9615 36.7836 65.9001 36.8258 65.8387 36.8258ZM62.1244 36.8258H61.2854C61.0756 36.8258 60.8761 36.7836 60.6868 36.6991C60.5026 36.6146 60.3389 36.5037 60.2008 36.3611C60.0627 36.2185 59.9501 36.0495 59.8682 35.8593C59.7864 35.6692 59.7455 35.458 59.7455 35.2414C59.7455 35.0196 59.7864 34.8137 59.8682 34.6182C59.9501 34.4281 60.0627 34.2591 60.1957 34.1113C60.3338 33.9687 60.4975 33.8525 60.6817 33.768C60.8659 33.6835 61.0705 33.6412 61.2803 33.6412H62.0886C62.1807 33.6465 62.2165 33.7152 62.2165 33.768C62.2165 33.8472 62.1654 33.8947 62.0937 33.8947H61.2854C61.1115 33.8947 60.9426 33.9317 60.7891 34.0003C60.6305 34.069 60.4924 34.1693 60.3799 34.2855C60.2622 34.407 60.1701 34.5496 60.1036 34.708C60.0371 34.8665 60.0013 35.0407 60.0013 35.2256C60.0013 35.4052 60.0371 35.5794 60.1036 35.7379C60.1701 35.8963 60.2673 36.0389 60.3799 36.1604C60.4975 36.2818 60.6357 36.3769 60.7891 36.4456C60.9426 36.5142 61.1115 36.5512 61.2854 36.5512H62.0937C62.1858 36.5565 62.2216 36.6251 62.2216 36.6779C62.2216 36.736 62.1909 36.7836 62.1398 36.7994L62.1244 36.8258ZM52.1276 36.8258H50.3626V33.6465H52.1123C52.2044 33.6465 52.2504 33.7099 52.2504 33.7732C52.2504 33.8525 52.1993 33.9 52.1276 33.9H50.6184C50.6184 34.1007 50.6184 34.3014 50.6184 34.4915C50.6184 34.6816 50.6184 34.877 50.6184 35.083H50.823C50.9151 35.083 50.9612 35.1464 50.9612 35.2097C50.9612 35.289 50.91 35.3365 50.8384 35.3365H50.6235V36.567H52.1328C52.2095 36.567 52.2658 36.6198 52.2658 36.6938C52.2504 36.773 52.2044 36.8258 52.1276 36.8258ZM47.9274 36.8258H46.9553C46.7404 36.8258 46.5409 36.7836 46.3516 36.6991C46.1674 36.6146 46.0037 36.5037 45.8656 36.3611C45.7274 36.2185 45.6149 36.0495 45.5381 35.8593C45.4563 35.6692 45.4154 35.458 45.4154 35.2414C45.4154 35.0196 45.4563 34.8137 45.5381 34.6182C45.62 34.4281 45.7274 34.2538 45.8656 34.1113C46.0037 33.9687 46.1674 33.8525 46.3516 33.768C46.5358 33.6835 46.7404 33.6412 46.9553 33.6412H47.0576C47.1497 33.6412 47.1958 33.7046 47.1958 33.768C47.1958 33.8472 47.1446 33.8947 47.073 33.8947H46.9604C46.7865 33.8947 46.6176 33.9317 46.4642 34.0003C46.3056 34.069 46.1674 34.1693 46.0549 34.2855C45.9372 34.407 45.8451 34.5496 45.7786 34.708C45.7121 34.8665 45.6763 35.0407 45.6763 35.2256C45.6763 35.4052 45.7121 35.5794 45.7786 35.7379C45.8451 35.8963 45.9423 36.0389 46.0549 36.1604C46.1725 36.2818 46.3107 36.3769 46.4642 36.4456C46.6176 36.5142 46.7865 36.5512 46.9655 36.5512H47.6869V34.8665H47.119C47.0269 34.8665 46.9809 34.8031 46.9809 34.7397C46.9809 34.6763 47.0218 34.6235 47.0832 34.613H47.0985H47.9376V36.8258H47.9274ZM47.0934 34.7556H47.119H47.0934ZM47.0832 34.7556H47.0423H47.0832ZM42.8317 36.8258C42.7652 36.8258 42.7345 36.7888 42.7243 36.7677L42.7192 36.7624L41.4197 34.1007L40.1919 36.567H41.3737C41.4504 36.567 41.5067 36.6198 41.5067 36.6938C41.5067 36.773 41.4555 36.8205 41.3839 36.8205H39.7826L41.4197 33.5303L42.9545 36.6568V36.6938C42.9597 36.7783 42.9085 36.8258 42.8317 36.8258ZM34.2265 36.8258H32.4615V33.6465H34.2112C34.3033 33.6465 34.3493 33.7099 34.3493 33.7732C34.3493 33.8525 34.2982 33.9 34.2265 33.9H32.7173C32.7173 34.1007 32.7173 34.3014 32.7173 34.4915C32.7173 34.6816 32.7173 34.877 32.7173 35.083H32.9219C33.014 35.083 33.0601 35.1464 33.0601 35.2097C33.0601 35.289 33.0089 35.3365 32.9373 35.3365H32.7224V36.567H34.2316C34.3084 36.567 34.3647 36.6198 34.3647 36.6938C34.3493 36.773 34.2982 36.8258 34.2265 36.8258ZM24.3883 36.8258C24.3372 36.8258 24.3116 36.8047 24.2962 36.7836C24.2758 36.7624 24.2655 36.7308 24.2655 36.6991V33.7732C24.2655 33.6993 24.3167 33.6518 24.3883 33.6518C24.4497 33.6518 24.5009 33.694 24.5111 33.7574V33.7732V36.7043C24.5111 36.7413 24.5009 36.773 24.4753 36.7941C24.4548 36.8152 24.4241 36.8258 24.3883 36.8258ZM20.6331 36.8258C20.5564 36.8258 20.5104 36.773 20.5104 36.6991V33.9053H19.4667C19.4104 33.9053 19.349 33.863 19.349 33.7785C19.349 33.6993 19.3951 33.6518 19.4667 33.6518H21.7229C21.7587 33.6518 21.7894 33.6676 21.815 33.694C21.8354 33.7204 21.8456 33.7468 21.8456 33.7785C21.8456 33.8577 21.7945 33.9053 21.7229 33.9053H20.7559V36.6885C20.7559 36.773 20.7048 36.8258 20.6331 36.8258ZM16.7807 36.8258C16.7142 36.8258 16.6835 36.7888 16.6733 36.7677L16.6682 36.7624L15.3687 34.1007L14.1409 36.567H15.3227C15.3994 36.567 15.4557 36.6198 15.4557 36.6938C15.4557 36.773 15.4045 36.8205 15.3329 36.8205H13.7316L15.3687 33.5303L16.9035 36.6568V36.6938C16.9035 36.7783 16.8524 36.8258 16.7807 36.8258ZM11.2605 36.8258H9.49546V33.6465H11.2452C11.3372 33.6465 11.3833 33.7099 11.3833 33.7732C11.3833 33.8525 11.3321 33.9 11.2605 33.9H9.75127C9.75127 34.1007 9.75127 34.3014 9.75127 34.4915C9.75127 34.6816 9.75127 34.877 9.75127 35.083H9.95591C10.048 35.083 10.094 35.1464 10.094 35.2097C10.094 35.289 10.0429 35.3365 9.97126 35.3365H9.75638V36.567H11.2656C11.3424 36.567 11.3986 36.6198 11.3986 36.6938C11.3833 36.773 11.3321 36.8258 11.2605 36.8258ZM2.39948 36.8258H1.56044C1.35069 36.8258 1.15116 36.7836 0.961864 36.6991C0.777686 36.6146 0.613972 36.5037 0.475838 36.3611C0.337704 36.2185 0.22515 36.0495 0.143293 35.8593C0.0614363 35.6692 0.0205078 35.458 0.0205078 35.2414C0.0205078 35.0196 0.0614363 34.8137 0.143293 34.6182C0.22515 34.4281 0.337704 34.2591 0.470722 34.1113C0.608855 33.9687 0.77257 33.8525 0.956748 33.768C1.14093 33.6835 1.34557 33.6412 1.55533 33.6412H2.36367C2.45576 33.6465 2.49157 33.7152 2.49157 33.768C2.49157 33.8472 2.44041 33.8947 2.36878 33.8947H1.56044C1.3865 33.8947 1.21767 33.9317 1.06419 34.0003C0.905587 34.069 0.767454 34.1693 0.6549 34.2855C0.537231 34.407 0.445141 34.5496 0.378632 34.708C0.312124 34.8665 0.276311 35.0407 0.276311 35.2256C0.276311 35.4052 0.312124 35.5794 0.378632 35.7379C0.445141 35.8963 0.542347 36.0389 0.6549 36.1604C0.77257 36.2818 0.910703 36.3769 1.06419 36.4456C1.21767 36.5142 1.3865 36.5512 1.56556 36.5512H2.3739C2.46599 36.5565 2.5018 36.6251 2.5018 36.6779C2.5018 36.736 2.4711 36.7836 2.41994 36.7994L2.39948 36.8258Z" fill="white"/>
<path fill-rule="evenodd" clip-rule="evenodd" d="M32.3847 25.0328L46.4078 0H42.7447C40.2225 4.50485 35.8227 12.3685 32.3182 18.6373L31.121 16.4615L40.3248 0H36.6617C34.4669 3.92392 31.8168 8.66643 29.3048 13.1607L28.1026 10.9796C30.2001 7.22995 32.3591 3.3694 34.2418 0.00528119H30.5787C29.2179 2.43991 27.7495 5.06466 26.2863 7.67885L25.1148 5.54525H19.0778H10.3856C7.3569 5.54525 5.88348 5.70368 5.88348 5.70368C7.39783 3.34827 10.3856 3.37996 10.3856 3.37996H23.9023L22.0707 0.105624H10.5903C5.36164 0.105624 1.12553 4.47845 1.12553 9.87582C1.12553 15.2732 5.36164 19.6988 10.5903 19.6988H16.6272C17.1951 19.7147 17.6504 20.19 17.6504 20.7815C17.6504 21.373 17.1951 21.8483 16.6272 21.8641H4.84491L3.01336 25.1385H8.16012C11.7414 25.1385 15.4096 25.1385 15.9058 25.1385C15.9417 25.1385 16.0849 25.1385 16.131 25.1385C16.704 25.1332 20.8735 24.943 20.8735 19.9101C20.8735 19.9101 22.613 20.153 22.613 22.3922C22.613 22.3922 22.613 27.2192 16.131 27.2509C16.1105 27.2509 15.9519 27.2509 15.9263 27.2509C15.1947 27.2509 4.97793 27.2509 1.83667 27.2509L0 30.5253H16.6784C20.8326 30.4989 24.3576 27.7157 25.6059 23.8498L29.3151 30.5253L31.1568 27.2509L20.8582 8.81958H23.2781L32.3847 25.0328ZM10.5903 8.81958H17.2002L18.5202 11.1803C17.9267 11.0535 17.3077 10.9902 16.6784 10.9849H10.5903C10.0224 10.969 9.56704 10.4937 9.56704 9.90223C9.56704 9.31073 10.0224 8.83543 10.5903 8.81958ZM21.4363 16.5829C21.4363 16.5829 19.8503 16.4245 17.0877 16.4245C17.0877 16.4245 12.3911 16.4245 11.3526 16.4245C11.2246 16.4245 11.0609 16.4245 11.0405 16.4245C4.20029 16.3928 4.75794 11.5658 4.75794 11.5658C4.75794 9.32658 6.4974 9.08364 6.4974 9.08364C6.4974 14.0796 10.4112 14.2645 11.02 14.2592C11.0712 14.2592 11.24 14.2592 11.3935 14.2592C12.5139 14.2592 17.0825 14.2592 17.0825 14.2592C17.0825 14.2592 19.7378 14.0004 21.4363 16.5829Z" fill="#FF9600"/>
<path fill-rule="evenodd" clip-rule="evenodd" d="M49.585 0.158436L49.5236 0L32.1699 30.5253C32.4922 30.652 41.5068 30.5253 41.5068 30.5253L46.3926 21.7849C48.0553 24.7582 49.7743 27.8424 51.2836 30.5464H66.8569L49.585 0.158436ZM48.2242 18.5106L49.452 16.3189C50.8487 18.8169 52.3324 21.5367 53.7086 23.9977H57.3717L49.4111 9.84413L39.665 27.2721C38.7645 27.2721 37.9511 27.2668 37.2451 27.2668L49.4469 5.45019C49.8255 6.12618 59.1879 22.9151 61.6231 27.2773H53.1151L48.2242 18.5106Z" fill="white"/>
</g>
<defs>
<clipPath id="clip0">
<rect width="67" height="37" fill="white"/>
</clipPath>
</defs>
</svg>
