<svg width="75" height="25" viewBox="0 0 75 25" fill="none" xmlns="http://www.w3.org/2000/svg">
<path d="M48.7502 0.191406C42.2954 0.191406 39.0002 3.40961 39.0002 7.50967C39.0002 14.931 47.4525 13.9232 47.4525 17.7369C47.4525 18.3783 46.9672 19.9129 43.4238 19.9129C39.8691 19.9129 37.5671 18.5272 37.5671 18.5272L36.4612 23.5434C36.4612 23.5434 38.7632 24.8605 43.1643 24.8605C47.554 24.8605 53.6252 21.4476 53.6252 16.4886C53.6252 10.5103 45.173 10.0407 45.173 7.38369C45.173 6.02082 46.2111 5.00153 49.2693 5.00153C51.2554 5.00153 53.4898 6.52474 53.4898 6.52474L54.5393 1.38249C54.5393 1.38249 51.5827 0.191406 48.7502 0.191406ZM21.2606 0.649515L15.6634 17.4048C15.6634 17.4048 15.2797 15.9847 15.1443 15.1028C11.9507 7.83034 6.75977 5.13897 6.75977 5.13897L11.7025 24.139H18.462L27.8171 0.649515H21.2606ZM30.2207 0.649515L26.587 24.139H32.7598L36.4612 0.649515H30.2207ZM63.5671 0.649515L53.4898 24.139H59.6061L60.8362 20.7719H68.5098L69.1643 24.139H74.7502L70.0106 0.649515H63.5671ZM65.9143 7.45241L67.5957 16.2824H62.5289L65.9143 7.45241Z" fill="#F8F8F8"/>
<path opacity="0.5" d="M14.8845 13.7175C12.0747 4.50959 0 0.71875 0 0.71875H9.49045C11.9167 0.71875 12.8082 3.03219 12.8082 3.03219L14.8845 13.7175Z" fill="#F8F8F8"/>
</svg>
