<svg width="23" height="26" viewBox="0 0 23 26" fill="none" xmlns="http://www.w3.org/2000/svg">
<path fill-rule="evenodd" clip-rule="evenodd" d="M0.565674 25.8083L2.28245 6.60753H6.3598V6.17115C6.3598 3.27907 8.66568 0.93457 11.5101 0.93457C14.3546 0.93457 16.6605 3.27907 16.6605 6.17115V6.60753H20.7378L22.4546 25.8083H0.565674ZM3.22312 7.65485L1.69363 24.761H21.3266L19.7971 7.65485H16.6605V8.9447C16.9189 9.116 17.0897 9.41246 17.0897 9.74948C17.0897 10.2797 16.6669 10.7095 16.1454 10.7095C15.6239 10.7095 15.2012 10.2797 15.2012 9.74948C15.2012 9.41246 15.372 9.116 15.6304 8.9447V7.65485H7.38986V8.9447C7.64826 9.116 7.81906 9.41246 7.81906 9.74948C7.81906 10.2797 7.39631 10.7095 6.87483 10.7095C6.35335 10.7095 5.9306 10.2797 5.9306 9.74948C5.9306 9.41246 6.1014 9.116 6.3598 8.9447V7.65485H3.22312ZM11.5101 1.98189C9.23457 1.98189 7.38986 3.85748 7.38986 6.17115V6.60753H15.6304V6.17115C15.6304 3.85748 13.7857 1.98189 11.5101 1.98189Z" fill="#393840"/>
</svg>
