<svg width="22" height="20" viewBox="0 0 22 20" fill="none" xmlns="http://www.w3.org/2000/svg">
<path fill-rule="evenodd" clip-rule="evenodd" d="M11.3762 4.82111L10.6049 3.93145C8.94108 2.01237 6.59456 1.58271 4.80166 2.35443C3.07249 3.09873 1.64404 5.06665 2.02985 8.4711C2.26119 10.5125 3.75079 12.6431 5.79533 14.5681C7.62484 16.2906 9.75534 17.7141 11.3762 18.6063C12.997 17.7141 15.1275 16.2906 16.957 14.5681C19.0016 12.6431 20.4912 10.5125 20.7225 8.4711C21.1083 5.06665 19.6799 3.09873 17.9507 2.35443C16.1578 1.58271 13.8113 2.01237 12.1475 3.93145L11.3762 4.82111ZM11.3762 19.8181C7.91723 18.0226 1.55283 13.4817 0.999268 8.59696C0.187336 1.43232 6.61826 -0.983627 10.6277 2.46395C10.8883 2.68804 11.1387 2.93689 11.3762 3.21082C11.6137 2.93689 11.864 2.68804 12.1246 2.46395C16.1341 -0.983627 22.565 1.43232 21.7531 8.59696C21.1995 13.4817 14.8352 18.0226 11.3762 19.8181Z" fill="#393840"/>
</svg>
