<svg width="130" height="59" viewBox="0 0 130 59" fill="none" xmlns="http://www.w3.org/2000/svg">
<path d="M0 28.7998L5.08123 0.575174C5.10855 0.465617 5.17684 0.410838 5.28612 0.410838H11.2279C11.3372 0.410838 11.4054 0.465617 11.4328 0.575174L16.3091 28.7998C16.3364 28.9367 16.2818 29.0052 16.1452 29.0052H11.5967C11.4874 29.0052 11.4191 28.9367 11.3918 28.7998L10.941 25.8007H5.36807L4.91732 28.7998C4.89 28.9367 4.8217 29.0052 4.71243 29.0052H0.163911C0.0546369 29.0052 0 28.9367 0 28.7998ZM6.18763 21.4047H10.1215L8.4414 9.86013L8.19553 8.34003L8.03162 9.86013L6.18763 21.4047Z" fill="#393840"/>
<path d="M19.0447 29.0052C18.9354 29.0052 18.8808 28.9367 18.8808 28.7998L18.9627 0.575174C18.9627 0.465617 19.0174 0.410838 19.1266 0.410838H27.4041C28.8793 0.410838 30.2316 0.780593 31.4609 1.5201C32.7176 2.23222 33.7147 3.20454 34.4523 4.43706C35.1899 5.64219 35.5587 7.01165 35.5587 8.54545C35.5587 9.55885 35.4084 10.4764 35.1079 11.2981C34.8074 12.0924 34.4523 12.7771 34.0425 13.3523C33.6327 13.9 33.2639 14.3109 32.9361 14.5848C34.4113 16.2281 35.1489 18.1591 35.1489 20.3776L35.1899 28.7998C35.1899 28.9367 35.1216 29.0052 34.985 29.0052H30.3545C30.2452 29.0052 30.1906 28.9641 30.1906 28.882V20.3776C30.1906 19.3916 29.8355 18.5425 29.1252 17.8304C28.4422 17.0909 27.5954 16.7211 26.5846 16.7211H23.88L23.8391 28.7998C23.8391 28.9367 23.7844 29.0052 23.6752 29.0052H19.0447ZM23.88 11.7911H27.4041C28.251 11.7911 29.0023 11.4761 29.6579 10.8461C30.3135 10.2162 30.6414 9.44929 30.6414 8.54545C30.6414 7.66899 30.3135 6.91579 29.6579 6.28583C29.0296 5.65588 28.2783 5.3409 27.4041 5.3409H23.88V11.7911Z" fill="#393840"/>
<path d="M41.9467 29.0052C41.8374 29.0052 41.7828 28.9367 41.7828 28.7998V5.38199H36.4557C36.3191 5.38199 36.2508 5.31351 36.2508 5.17657L36.2918 0.575174C36.2918 0.465617 36.3464 0.410838 36.4557 0.410838H52.0272C52.1638 0.410838 52.2321 0.465617 52.2321 0.575174V5.17657C52.2321 5.31351 52.1775 5.38199 52.0682 5.38199H46.7001L46.7411 28.7998C46.7411 28.9367 46.6865 29.0052 46.5772 29.0052H41.9467Z" fill="#393840"/>
<path d="M54.6248 29.0052C54.4063 29.0052 54.297 28.9094 54.297 28.7176L54.256 0.73951C54.256 0.520396 54.3653 0.410838 54.5838 0.410838H58.2718L65.197 16.5979L64.9922 0.73951C64.9922 0.520396 65.1151 0.410838 65.361 0.410838H69.4177C69.5817 0.410838 69.6636 0.520396 69.6636 0.73951L69.7046 28.7587C69.7046 28.923 69.6363 29.0052 69.4997 29.0052H65.8937L58.8045 13.8863L59.0914 28.6765C59.0914 28.8957 58.9684 29.0052 58.7226 29.0052H54.6248Z" fill="#393840"/>
<path d="M71.871 28.7998L76.9522 0.575174C76.9795 0.465617 77.0478 0.410838 77.1571 0.410838H83.0988C83.2081 0.410838 83.2764 0.465617 83.3037 0.575174L88.1801 28.7998C88.2074 28.9367 88.1527 29.0052 88.0162 29.0052H83.4676C83.3584 29.0052 83.2901 28.9367 83.2627 28.7998L82.812 25.8007H77.239L76.7883 28.7998C76.761 28.9367 76.6927 29.0052 76.5834 29.0052H72.0349C71.9256 29.0052 71.871 28.9367 71.871 28.7998ZM78.0586 21.4047H81.9924L80.3124 9.86013L80.0665 8.34003L79.9026 9.86013L78.0586 21.4047Z" fill="#393840"/>
<path d="M90.9566 29.0052C90.82 29.0052 90.7517 28.9367 90.7517 28.7998L90.7927 0.575174C90.7927 0.465617 90.8473 0.410838 90.9566 0.410838H95.5461C95.6554 0.410838 95.71 0.465617 95.71 0.575174L95.751 28.7998C95.751 28.9367 95.6964 29.0052 95.5871 29.0052H90.9566Z" fill="#393840"/>
<path d="M99.9195 29.0052C99.8102 29.0052 99.7556 28.9367 99.7556 28.7998L99.7966 0.616258C99.7966 0.479311 99.8649 0.410838 100.001 0.410838H104.55C104.687 0.410838 104.755 0.479311 104.755 0.616258L104.714 23.9519H113.155C113.292 23.9519 113.36 24.0204 113.36 24.1573V28.7998C113.36 28.9367 113.292 29.0052 113.155 29.0052H99.9195Z" fill="#393840"/>
<path d="M121.968 29.4161C120.493 29.4161 119.141 29.0463 117.912 28.3068C116.71 27.5399 115.74 26.5402 115.002 25.3077C114.292 24.0478 113.937 22.6646 113.937 21.1582V19.2683C113.937 19.1314 114.005 19.0629 114.142 19.0629H118.731C118.84 19.0629 118.895 19.1314 118.895 19.2683V21.1582C118.895 22.062 119.196 22.8426 119.797 23.5C120.398 24.1299 121.122 24.4449 121.968 24.4449C122.815 24.4449 123.539 24.1162 124.14 23.4589C124.741 22.8016 125.042 22.0347 125.042 21.1582C125.042 20.1448 124.386 19.2683 123.075 18.5288C122.638 18.2823 121.955 17.8989 121.026 17.3785C120.097 16.8581 119.223 16.3651 118.403 15.8995C116.901 15.023 115.781 13.9274 115.043 12.6128C114.333 11.2707 113.978 9.76427 113.978 8.09352C113.978 6.55973 114.347 5.19026 115.084 3.98514C115.822 2.75262 116.792 1.7803 117.994 1.06818C119.223 0.356061 120.548 0 121.968 0C123.416 0 124.741 0.369755 125.943 1.10927C127.173 1.82138 128.142 2.7937 128.853 4.02622C129.59 5.23135 129.959 6.58712 129.959 8.09352V11.4624C129.959 11.572 129.904 11.6267 129.795 11.6267H125.206C125.096 11.6267 125.042 11.572 125.042 11.4624L125.001 8.09352C125.001 7.1349 124.7 6.35431 124.099 5.75174C123.498 5.14918 122.788 4.8479 121.968 4.8479C121.122 4.8479 120.398 5.17657 119.797 5.83391C119.196 6.46386 118.895 7.21707 118.895 8.09352C118.895 8.99737 119.086 9.75057 119.469 10.3531C119.851 10.9557 120.548 11.5309 121.559 12.0787C121.695 12.1608 121.955 12.3115 122.337 12.5306C122.747 12.7223 123.184 12.9551 123.648 13.229C124.113 13.4755 124.523 13.6946 124.878 13.8863C125.26 14.0781 125.492 14.2013 125.574 14.2561C126.94 15.023 128.019 15.9679 128.812 17.0909C129.604 18.1865 130 19.5422 130 21.1582C130 22.7194 129.631 24.1299 128.894 25.3898C128.183 26.6224 127.214 27.6084 125.984 28.3479C124.782 29.06 123.444 29.4161 121.968 29.4161Z" fill="#393840"/>
<path d="M7.68857 43.4187C8.74271 43.4187 9.69713 43.6599 10.5518 44.1425C11.4065 44.6109 12.0761 45.2779 12.5604 46.1437C13.0447 47.0095 13.2869 47.9959 13.2869 49.103C13.2869 50.21 13.0447 51.1964 12.5604 52.0622C12.0761 52.928 11.4065 53.6021 10.5518 54.0847C9.69713 54.5673 8.74271 54.8086 7.68857 54.8086C6.7484 54.8086 5.90082 54.6099 5.14583 54.2125C4.40508 53.815 3.80679 53.2402 3.35095 52.488V54.7021H1.89795V38.9053H3.41505V45.6328C3.88514 44.9089 4.48343 44.3625 5.20993 43.9935C5.95067 43.6103 6.77689 43.4187 7.68857 43.4187ZM7.58174 53.4673C8.36521 53.4673 9.07747 53.2899 9.7185 52.9351C10.3595 52.5661 10.8581 52.048 11.2142 51.3809C11.5846 50.7139 11.7698 49.9545 11.7698 49.103C11.7698 48.2514 11.5846 47.4921 11.2142 46.825C10.8581 46.1579 10.3595 45.647 9.7185 45.2921C9.07747 44.9231 8.36521 44.7386 7.58174 44.7386C6.78401 44.7386 6.06463 44.9231 5.42361 45.2921C4.79682 45.647 4.29824 46.1579 3.92787 46.825C3.57175 47.4921 3.39368 48.2514 3.39368 49.103C3.39368 49.9545 3.57175 50.7139 3.92787 51.3809C4.29824 52.048 4.79682 52.5661 5.42361 52.9351C6.06463 53.2899 6.78401 53.4673 7.58174 53.4673Z" fill="#393840"/>
<path d="M25.2471 54.8086C24.1645 54.8086 23.1887 54.5673 22.3197 54.0847C21.4508 53.588 20.767 52.9067 20.2684 52.0409C19.7698 51.1751 19.5206 50.1958 19.5206 49.103C19.5206 48.0101 19.7698 47.0308 20.2684 46.165C20.767 45.2992 21.4508 44.6251 22.3197 44.1425C23.1887 43.6599 24.1645 43.4187 25.2471 43.4187C26.3297 43.4187 27.3055 43.6599 28.1744 44.1425C29.0434 44.6251 29.72 45.2992 30.2044 46.165C30.7029 47.0308 30.9522 48.0101 30.9522 49.103C30.9522 50.1958 30.7029 51.1751 30.2044 52.0409C29.72 52.9067 29.0434 53.588 28.1744 54.0847C27.3055 54.5673 26.3297 54.8086 25.2471 54.8086ZM25.2471 53.4673C26.0448 53.4673 26.7571 53.2899 27.3838 52.9351C28.0249 52.5661 28.5234 52.048 28.8796 51.3809C29.2357 50.7139 29.4138 49.9545 29.4138 49.103C29.4138 48.2514 29.2357 47.4921 28.8796 46.825C28.5234 46.1579 28.0249 45.647 27.3838 45.2921C26.7571 44.9231 26.0448 44.7386 25.2471 44.7386C24.4494 44.7386 23.73 44.9231 23.0889 45.2921C22.4622 45.647 21.9636 46.1579 21.5932 46.825C21.2371 47.4921 21.059 48.2514 21.059 49.103C21.059 49.9545 21.2371 50.7139 21.5932 51.3809C21.9636 52.048 22.4622 52.5661 23.0889 52.9351C23.73 53.2899 24.4494 53.4673 25.2471 53.4673Z" fill="#393840"/>
<path d="M48.4513 43.5038V54.7021H46.9983V52.6583C46.5994 53.3396 46.051 53.8718 45.353 54.255C44.655 54.624 43.8573 54.8086 42.9598 54.8086C41.4926 54.8086 40.3316 54.4041 39.4769 53.5951C38.6365 52.7719 38.2162 51.5725 38.2162 49.9971V43.5038H39.7333V49.8481C39.7333 51.0261 40.0253 51.9203 40.6094 52.5306C41.1934 53.1409 42.0268 53.446 43.1094 53.446C44.2917 53.446 45.2248 53.0912 45.9086 52.3816C46.5923 51.6577 46.9342 50.6571 46.9342 49.3797V43.5038H48.4513Z" fill="#393840"/>
<path d="M62.8926 54.0208C62.6077 54.2763 62.2516 54.475 61.8243 54.617C61.4112 54.7447 60.9767 54.8086 60.5208 54.8086C59.4667 54.8086 58.6547 54.5247 58.0849 53.957C57.5151 53.3893 57.2302 52.5873 57.2302 51.5513V44.7812H55.2217V43.5038H57.2302V41.0555H58.7473V43.5038H62.1661V44.7812H58.7473V51.4661C58.7473 52.1332 58.9112 52.6441 59.2388 52.9989C59.5807 53.3396 60.065 53.5099 60.6918 53.5099C61.0052 53.5099 61.3043 53.4602 61.5892 53.3609C61.8884 53.2615 62.1448 53.1196 62.3585 52.9351L62.8926 54.0208Z" fill="#393840"/>
<path d="M69.9279 43.5038H71.445V54.7021H69.9279V43.5038ZM70.6972 41.0555C70.3838 41.0555 70.1202 40.9491 69.9066 40.7362C69.6929 40.5233 69.5861 40.2678 69.5861 39.9698C69.5861 39.6859 69.6929 39.4375 69.9066 39.2246C70.1202 39.0117 70.3838 38.9053 70.6972 38.9053C71.0106 38.9053 71.2741 39.0117 71.4878 39.2246C71.7014 39.4233 71.8083 39.6646 71.8083 39.9485C71.8083 40.2607 71.7014 40.5233 71.4878 40.7362C71.2741 40.9491 71.0106 41.0555 70.6972 41.0555Z" fill="#393840"/>
<path d="M90.1963 43.5038V58.8323H88.6792V52.5944C88.2091 53.3183 87.6037 53.8718 86.8629 54.255C86.1364 54.624 85.3173 54.8086 84.4057 54.8086C83.3373 54.8086 82.3757 54.5744 81.521 54.106C80.6806 53.6234 80.0182 52.9493 79.5339 52.0835C79.0495 51.2177 78.8074 50.2242 78.8074 49.103C78.8074 47.9959 79.0495 47.0095 79.5339 46.1437C80.0182 45.2779 80.6877 44.6109 81.5424 44.1425C82.3971 43.6599 83.3515 43.4187 84.4057 43.4187C85.3458 43.4187 86.1863 43.6174 86.927 44.0148C87.682 44.4122 88.2875 44.9799 88.7433 45.7179V43.5038H90.1963ZM84.5339 53.4673C85.3173 53.4673 86.0225 53.2899 86.6493 52.9351C87.2903 52.5661 87.7889 52.048 88.145 51.3809C88.5154 50.7139 88.7006 49.9545 88.7006 49.103C88.7006 48.2514 88.5154 47.4991 88.145 46.8463C87.7889 46.1792 87.2903 45.6612 86.6493 45.2921C86.0225 44.9231 85.3173 44.7386 84.5339 44.7386C83.7361 44.7386 83.0168 44.9231 82.3757 45.2921C81.749 45.6612 81.2504 46.1792 80.88 46.8463C80.5239 47.4991 80.3458 48.2514 80.3458 49.103C80.3458 49.9545 80.5239 50.7139 80.88 51.3809C81.2504 52.048 81.749 52.5661 82.3757 52.9351C83.0168 53.2899 83.7361 53.4673 84.5339 53.4673Z" fill="#393840"/>
<path d="M108.823 43.5038V54.7021H107.37V52.6583C106.971 53.3396 106.423 53.8718 105.725 54.255C105.027 54.624 104.229 54.8086 103.332 54.8086C101.864 54.8086 100.703 54.4041 99.8488 53.5951C99.0083 52.7719 98.5881 51.5725 98.5881 49.9971V43.5038H100.105V49.8481C100.105 51.0261 100.397 51.9203 100.981 52.5306C101.565 53.1409 102.399 53.446 103.481 53.446C104.664 53.446 105.597 53.0912 106.28 52.3816C106.964 51.6577 107.306 50.6571 107.306 49.3797V43.5038H108.823Z" fill="#393840"/>
<path d="M127.132 49.5713H117.73C117.816 50.7352 118.264 51.679 119.076 52.4028C119.888 53.1125 120.914 53.4673 122.153 53.4673C122.851 53.4673 123.492 53.3467 124.076 53.1054C124.661 52.8499 125.166 52.4809 125.594 51.9983L126.448 52.9777C125.95 53.5738 125.323 54.0279 124.568 54.3402C123.827 54.6524 123.008 54.8086 122.111 54.8086C120.957 54.8086 119.931 54.5673 119.034 54.0847C118.151 53.588 117.46 52.9067 116.961 52.0409C116.462 51.1751 116.213 50.1958 116.213 49.103C116.213 48.0101 116.448 47.0308 116.918 46.165C117.403 45.2992 118.058 44.6251 118.884 44.1425C119.725 43.6599 120.665 43.4187 121.705 43.4187C122.745 43.4187 123.678 43.6599 124.504 44.1425C125.33 44.6251 125.978 45.2992 126.448 46.165C126.918 47.0166 127.153 47.9959 127.153 49.103L127.132 49.5713ZM121.705 44.7173C120.622 44.7173 119.71 45.065 118.97 45.7605C118.243 46.4418 117.83 47.3359 117.73 48.443H125.7C125.601 47.3359 125.18 46.4418 124.44 45.7605C123.713 45.065 122.802 44.7173 121.705 44.7173Z" fill="#393840"/>
</svg>
